<svg width="26880" height="6976" viewBox="0 0 26880 6976" fill="none" xmlns="http://www.w3.org/2000/svg">
<rect width="26880" height="6976" fill="#262626"/>
<path fill-rule="evenodd" clip-rule="evenodd" d="M14034.4 3568.14C13978.1 3623.59 13950 3690.78 13950 3769.72V4382H13629.9V3769.72C13629.9 3603.41 13689.1 3460.63 13807.6 3341.37C13926 3222.11 14069.3 3162.48 14237.3 3162.48H14499.4V3485H14237.3C14158.3 3485 14090.7 3512.71 14034.4 3568.14ZM14872.4 3568.14C14816 3623.59 14787.9 3690.78 14787.9 3769.72V4382H14467.9V3769.72C14467.9 3603.41 14527.1 3460.63 14645.5 3341.37C14764 3222.11 14907.2 3162.48 15075.2 3162.48H15337.4V3485H15075.2C14996.2 3485 14928.6 3512.71 14872.4 3568.14ZM10937.5 2960.9C10905.2 2961.27 10873.5 2953.01 10845.5 2936.96C10818.2 2921.41 10795.5 2898.78 10780 2871.46C10763.9 2843.48 10755.7 2811.73 10756 2779.49C10756 2729.09 10773.7 2686.25 10809 2650.99C10844.2 2615.72 10887.1 2598.08 10937.5 2598.07C10987.9 2598.07 11030.7 2615.71 11066 2650.99C11101.3 2686.27 11119 2729.1 11119 2779.49C11119 2829.88 11101.3 2872.72 11066 2907.98C11030.7 2943.25 10987.9 2960.89 10937.5 2960.9ZM11098.8 4382H10776.2V3162.48H11098.8V4382ZM10727.1 4322.65V4375.63H10116.9C9779.97 4375.63 9506.79 4102.35 9506.79 3765.22V3734.86C9506.79 3397.73 9779.97 3124.44 10116.9 3124.44C10220.7 3124.3 10319.2 3150.74 10409.8 3201.26L10413.4 2656.76C10413.4 2640.12 10420 2624.16 10431.8 2612.39C10443.6 2600.62 10459.5 2594 10476.2 2594H10666.4C10683 2594 10699 2600.62 10710.8 2612.39C10722.5 2624.16 10729.1 2640.12 10729.1 2656.76V4306.79C10729.1 4312.14 10728.4 4317.47 10727.1 4322.65ZM10409.8 3742.75C10409.8 3665.07 10379 3590.58 10324 3535.66C10269.1 3480.73 10194.6 3449.88 10116.9 3449.88C10039.3 3449.88 9964.78 3480.73 9909.85 3535.66C9854.93 3590.58 9824.07 3665.07 9824.07 3742.75V3750.03C9824.06 3789.46 9831.82 3828.5 9846.9 3864.93C9861.98 3901.36 9884.09 3934.46 9911.96 3962.34C9939.83 3990.23 9972.92 4012.35 10009.3 4027.45C10045.8 4042.54 10084.8 4050.32 10124.2 4050.32H10409.8V3742.75ZM12352.1 4322.65V4375.63H11742C11405 4375.63 11131.8 4102.35 11131.8 3765.22V3734.86C11131.8 3397.73 11405 3124.44 11742 3124.44C11845.7 3124.3 11947.8 3150.74 12038.4 3201.26V2656.76C12038.4 2640.12 12045.1 2624.16 12056.8 2612.39C12068.6 2600.62 12084.5 2594.01 12101.2 2594H12291.4C12308.1 2594 12324 2600.62 12335.8 2612.39C12347.5 2624.16 12354.2 2640.12 12354.2 2656.76V4306.79C12354.2 4312.14 12353.5 4317.47 12352.1 4322.65ZM12034.8 3742.75C12034.8 3704.29 12027.3 3666.2 12012.6 3630.67C11997.8 3595.14 11976.3 3562.85 11949.1 3535.66C11921.9 3508.46 11889.6 3486.89 11854.1 3472.17C11818.5 3457.45 11780.4 3449.88 11742 3449.88C11703.5 3449.88 11665.4 3457.45 11629.9 3472.17C11594.4 3486.89 11562.1 3508.46 11534.9 3535.66C11507.7 3562.85 11486.1 3595.14 11471.4 3630.67C11456.7 3666.2 11449.1 3704.29 11449.1 3742.75V3750.03C11449.1 3829.65 11480.7 3906.02 11537 3962.34C11593.3 4018.65 11669.6 4050.3 11749.3 4050.32H12034.8V3742.75ZM12983.6 3124.83C13322.3 3124.83 13596.8 3399.38 13596.8 3738.03V4381.74H12983.6C12645 4381.74 12370.4 4107.19 12370.4 3768.54V3738.03C12370.4 3399.38 12645 3124.83 12983.6 3124.83ZM12983.6 3451.63C13022.3 3451.62 13060.6 3459.24 13096.3 3474.03C13132 3488.82 13164.4 3510.5 13191.8 3537.83C13219.1 3565.16 13240.8 3597.61 13255.6 3633.32C13270.4 3669.03 13278 3707.31 13278 3745.96V4054.94H12990.9C12910.9 4054.94 12834.2 4023.15 12777.6 3966.58C12721.1 3910.01 12689.3 3833.29 12689.3 3753.28V3745.96C12689.3 3707.31 12696.9 3669.03 12711.7 3633.32C12726.5 3597.61 12748.2 3565.16 12775.5 3537.83C12802.8 3510.5 12835.3 3488.82 12871 3474.03C12906.7 3459.24 12945 3451.62 12983.6 3451.63ZM15926.6 3124.83C16265.2 3124.83 16539.8 3399.38 16539.8 3738.03V4381.74H15926.6C15587.9 4381.74 15313.4 4107.19 15313.4 3768.54V3738.03C15313.4 3399.38 15587.9 3124.83 15926.6 3124.83ZM15926.6 3451.63C15965.2 3451.62 16003.5 3459.24 16039.2 3474.03C16074.9 3488.82 16107.4 3510.5 16134.7 3537.83C16162 3565.16 16183.7 3597.61 16198.5 3633.32C16213.3 3669.03 16220.9 3707.31 16220.9 3745.96V4054.94H15933.9C15853.9 4054.94 15777.2 4023.15 15720.6 3966.58C15664 3910.01 15632.2 3833.29 15632.2 3753.28V3745.96C15632.2 3707.31 15639.9 3669.03 15654.6 3633.32C15669.4 3597.61 15691.1 3565.16 15718.4 3537.83C15745.8 3510.5 15778.2 3488.82 15813.9 3474.03C15849.6 3459.24 15887.9 3451.62 15926.6 3451.63Z" fill="#575757" fill-opacity="0.17"/>
</svg>
