<svg width="26880" height="6977" viewBox="0 0 26880 6977" fill="none" xmlns="http://www.w3.org/2000/svg">
<path fill-rule="evenodd" clip-rule="evenodd" d="M14318.6 3548.36C14276.3 3590.06 14255.1 3640.61 14255.1 3699.99V4160.57H14014.3V3699.99C14014.3 3574.89 14058.9 3467.48 14148 3377.77C14237.1 3288.06 14344.8 3243.2 14471.2 3243.2H14668.4V3485.81H14471.2C14411.8 3485.81 14360.9 3506.66 14318.6 3548.36ZM14948.9 3548.36C14906.6 3590.06 14885.4 3640.61 14885.4 3699.99V4160.57H14644.7V3699.99C14644.7 3574.89 14689.2 3467.48 14778.3 3377.77C14867.4 3288.06 14975.2 3243.2 15101.6 3243.2H15298.7V3485.81H15101.6C15042.1 3485.81 14991.3 3506.66 14948.9 3548.36ZM11989 3091.57C11964.7 3091.85 11940.8 3085.63 11919.8 3073.56C11899.2 3061.86 11882.2 3044.84 11870.5 3024.28C11858.4 3003.24 11852.2 2979.35 11852.5 2955.1C11852.5 2917.19 11865.8 2884.97 11892.3 2858.44C11918.8 2831.91 11951.1 2818.64 11989 2818.63C12026.9 2818.63 12059.1 2831.9 12085.7 2858.44C12112.2 2884.98 12125.5 2917.2 12125.5 2955.1C12125.5 2993.01 12112.2 3025.23 12085.7 3051.76C12059.1 3078.29 12026.9 3091.56 11989 3091.57ZM12110.3 4160.57H11867.6V3243.2H12110.3V4160.57ZM11830.7 4115.93V4155.78H11371.7C11118.3 4155.78 10912.8 3950.21 10912.8 3696.61V3673.76C10912.8 3420.16 11118.3 3214.59 11371.7 3214.59C11449.8 3214.48 11523.9 3234.37 11592.1 3272.37L11594.8 2862.78C11594.8 2850.26 11599.7 2838.26 11608.6 2829.4C11617.4 2820.55 11629.4 2815.57 11642 2815.57H11785.1C11797.6 2815.57 11809.6 2820.55 11818.4 2829.4C11827.3 2838.26 11832.3 2850.26 11832.2 2862.78V4103.99C11832.3 4108.02 11831.7 4112.03 11830.7 4115.93ZM11592.1 3679.7C11592.1 3621.27 11568.8 3565.23 11527.5 3523.92C11486.2 3482.6 11430.2 3459.39 11371.7 3459.39C11313.3 3459.39 11257.3 3482.6 11216 3523.92C11174.6 3565.23 11151.4 3621.27 11151.4 3679.7V3685.18C11151.4 3714.84 11157.3 3744.21 11168.6 3771.61C11179.9 3799.01 11196.6 3823.91 11217.5 3844.89C11238.5 3865.86 11263.4 3882.51 11290.8 3893.86C11318.2 3905.22 11347.6 3911.06 11377.2 3911.07H11592.1V3679.7ZM13053.1 4115.93V4155.78H12594.1C12340.7 4155.78 12135.2 3950.21 12135.2 3696.61V3673.76C12135.2 3420.16 12340.7 3214.59 12594.1 3214.59C12672.2 3214.48 12749 3234.37 12817.2 3272.37V2862.78C12817.2 2850.26 12822.1 2838.26 12831 2829.41C12839.8 2820.55 12851.8 2815.58 12864.4 2815.57H13007.5C13020 2815.57 13032 2820.55 13040.8 2829.4C13049.7 2838.26 13054.7 2850.26 13054.7 2862.78V4103.99C13054.7 4108.02 13054.1 4112.03 13053.1 4115.93ZM12814.5 3679.7C12814.5 3650.77 12808.8 3622.12 12797.7 3595.39C12786.6 3568.66 12770.4 3544.38 12749.9 3523.92C12729.5 3503.46 12705.2 3487.23 12678.5 3476.16C12651.7 3465.09 12623.1 3459.39 12594.1 3459.39C12565.2 3459.39 12536.6 3465.09 12509.8 3476.16C12483.1 3487.23 12458.8 3503.46 12438.4 3523.92C12417.9 3544.38 12401.7 3568.66 12390.6 3595.39C12379.5 3622.12 12373.8 3650.77 12373.8 3679.7V3685.18C12373.8 3745.07 12397.6 3802.52 12439.9 3844.89C12482.3 3887.25 12539.7 3911.06 12599.6 3911.07H12814.5V3679.7ZM13528.2 3214.88C13782.9 3214.88 13989.4 3421.4 13989.4 3676.15V4160.37H13528.2C13273.4 4160.37 13066.9 3953.85 13066.9 3699.1V3676.15C13066.9 3421.4 13273.4 3214.88 13528.2 3214.88ZM13528.2 3460.71C13557.2 3460.71 13586 3466.43 13612.9 3477.56C13639.8 3488.69 13664.2 3505 13684.7 3525.56C13705.3 3546.12 13721.6 3570.52 13732.7 3597.39C13743.9 3624.25 13749.6 3653.04 13749.6 3682.12V3914.54H13533.7C13473.5 3914.54 13415.8 3890.63 13373.2 3848.08C13330.7 3805.52 13306.8 3747.81 13306.8 3687.63V3682.12C13306.8 3653.04 13312.5 3624.25 13323.6 3597.39C13334.7 3570.52 13351 3546.12 13371.6 3525.56C13392.2 3505 13416.6 3488.69 13443.4 3477.56C13470.3 3466.43 13499.1 3460.71 13528.2 3460.71ZM15742 3214.88C15996.7 3214.88 16203.2 3421.4 16203.2 3676.15V4160.37H15742C15487.2 4160.37 15280.7 3953.85 15280.7 3699.1V3676.15C15280.7 3421.4 15487.2 3214.88 15742 3214.88ZM15742 3460.71C15771 3460.71 15799.8 3466.43 15826.7 3477.56C15853.6 3488.69 15878 3505 15898.5 3525.56C15919.1 3546.12 15935.4 3570.52 15946.5 3597.39C15957.6 3624.25 15963.4 3653.04 15963.4 3682.12V3914.54H15747.5C15687.3 3914.54 15629.6 3890.63 15587 3848.08C15544.5 3805.52 15520.6 3747.81 15520.6 3687.63V3682.12C15520.6 3653.04 15526.3 3624.25 15537.4 3597.39C15548.5 3570.52 15564.8 3546.12 15585.4 3525.56C15606 3505 15630.4 3488.69 15657.2 3477.56C15684.1 3466.43 15712.9 3460.71 15742 3460.71Z" fill="#575757" fill-opacity="0.17"/>
</svg>
