<svg width="2340" height="1405" viewBox="0 0 2340 1405" fill="none" xmlns="http://www.w3.org/2000/svg">
<g clip-path="url(#clip0_961_1023)">
<mask id="mask0_961_1023" style="mask-type:luminance" maskUnits="userSpaceOnUse" x="44" y="18" width="2296" height="1546">
<path d="M2340 18.7969H44V1563.2H2340V18.7969Z" fill="white"/>
</mask>
<g mask="url(#mask0_961_1023)">
<path d="M1120.7 1298.9L1095.1 1614L1323.3 1616.8L1354.1 1329.6L1290 1275.7L1120.7 1298.9Z" fill="#E86A48"/>
</g>
<mask id="mask1_961_1023" style="mask-type:luminance" maskUnits="userSpaceOnUse" x="44" y="18" width="2296" height="1546">
<path d="M2340 18.7969H44V1563.2H2340V18.7969Z" fill="white"/>
</mask>
<g mask="url(#mask1_961_1023)">
<path d="M1915.5 937.294C1915.5 937.294 2041.5 1591.69 2033.6 1593.79C2013.8 1598.89 1912.8 1611.59 1838.7 1601.49L1783 1066.39L1787.4 1598.89C1787.4 1598.89 1625.4 1607.49 1597.6 1593.79C1595.1 1591.19 1651.3 933.794 1651.3 933.794L1693.4 901.794L1840.2 886.094L1915.5 937.294Z" fill="#FCE69C"/>
</g>
<mask id="mask2_961_1023" style="mask-type:luminance" maskUnits="userSpaceOnUse" x="44" y="18" width="2296" height="1546">
<path d="M2340 18.7969H44V1563.2H2340V18.7969Z" fill="white"/>
</mask>
<g mask="url(#mask2_961_1023)">
<path d="M1136.1 929.5L1097.6 1314.8C1097.6 1314.8 1192.5 1344.4 1338.7 1324.7C1402.8 1304.9 1436.1 1275.3 1436.1 1275.3L1410.5 936.9L1136.1 929.5Z" fill="#FCE69C"/>
</g>
<mask id="mask3_961_1023" style="mask-type:luminance" maskUnits="userSpaceOnUse" x="44" y="18" width="2296" height="1546">
<path d="M2340 18.7969H44V1563.2H2340V18.7969Z" fill="white"/>
</mask>
<g mask="url(#mask3_961_1023)">
<path d="M945.002 551.399L811.702 657.799L788.602 641.099C788.602 641.099 773.202 667.999 733.502 617.999C693.802 567.999 656.602 508.999 656.602 508.999C656.602 508.999 661.702 484.599 683.502 484.599C683.502 485.899 686.102 457.699 713.002 452.599C711.702 453.899 720.702 417.999 750.202 424.399C746.402 424.399 647.602 323.099 711.702 296.199C722.002 294.899 802.702 401.299 802.702 401.299C802.702 401.299 838.602 339.799 891.202 403.899C904.002 433.399 936.102 496.199 923.302 521.799C932.202 534.799 945.002 551.399 945.002 551.399Z" fill="#E2202D"/>
</g>
<mask id="mask4_961_1023" style="mask-type:luminance" maskUnits="userSpaceOnUse" x="44" y="18" width="2296" height="1546">
<path d="M2340 18.7969H44V1563.2H2340V18.7969Z" fill="white"/>
</mask>
<g mask="url(#mask4_961_1023)">
<path d="M1675.8 355.3C1675.8 355.3 1684.8 288.6 1738.6 275.8C1782.2 264.3 1850.1 279.6 1865.5 361.7C1868.1 414.3 1859.1 456.6 1859.1 456.6L1821.9 448.9L1675.8 355.3Z" fill="#E2202D"/>
</g>
<mask id="mask5_961_1023" style="mask-type:luminance" maskUnits="userSpaceOnUse" x="44" y="18" width="2296" height="1546">
<path d="M2340 18.7969H44V1563.2H2340V18.7969Z" fill="white"/>
</mask>
<g mask="url(#mask5_961_1023)">
<path d="M1166.9 1383.4L1154.1 1619.4L1551.6 1616.8L1523.3 1316.8L1205.4 1337.3L1166.9 1383.4Z" fill="#1B4773"/>
</g>
<mask id="mask6_961_1023" style="mask-type:luminance" maskUnits="userSpaceOnUse" x="44" y="18" width="2296" height="1546">
<path d="M2340 18.7969H44V1563.2H2340V18.7969Z" fill="white"/>
</mask>
<g mask="url(#mask6_961_1023)">
<path d="M1516 1104.2C1520.1 1176.9 1541 1356.9 1539.5 1356.9C1380.5 1444.9 1159.2 1385.9 1159.2 1385.9L1165.1 1166.3L1151 1145.9L1090.8 1058.6L1025.8 909.897L1049.7 884.297L1058.2 854.397L1123.2 810.797L1129.2 811.697L1141.2 810.797L1219.5 838.597L1389.1 898.797L1414.1 895.297L1437.8 891.997L1485.7 886.897L1562.6 869.797L1577.1 958.697L1589.1 1022.8C1589.1 1022.8 1520.7 1069.8 1515.6 1077.5C1515.1 1082.1 1515.3 1091.5 1516 1104.2Z" fill="#FEEADA"/>
</g>
<mask id="mask7_961_1023" style="mask-type:luminance" maskUnits="userSpaceOnUse" x="44" y="18" width="2296" height="1546">
<path d="M2340 18.7969H44V1563.2H2340V18.7969Z" fill="white"/>
</mask>
<g mask="url(#mask7_961_1023)">
<path d="M1515.6 1077.5C1515.1 1082.1 1515.3 1091.5 1516 1104.3C1458 1071.4 1406.2 907.397 1406.2 907.397L1414.1 895.297L1437.8 891.997L1485.4 891.697L1562.6 869.797L1577.1 958.697L1589.1 1022.8C1589.1 1022.8 1520.7 1069.8 1515.6 1077.5Z" fill="#E2202D"/>
</g>
<mask id="mask8_961_1023" style="mask-type:luminance" maskUnits="userSpaceOnUse" x="44" y="18" width="2296" height="1546">
<path d="M2340 18.7969H44V1563.2H2340V18.7969Z" fill="white"/>
</mask>
<g mask="url(#mask8_961_1023)">
<path d="M1479.7 714.195C1479.7 714.195 1491.7 787.695 1492.5 800.495C1493.4 813.295 1497.4 843.195 1488.8 889.395C1487.1 893.695 1451.5 898.295 1438.6 903.095C1431.8 905.695 1415.5 909.895 1415.5 909.895L1421.5 829.595L1413.8 739.895L1479.7 714.195Z" fill="#E86A48"/>
</g>
<mask id="mask9_961_1023" style="mask-type:luminance" maskUnits="userSpaceOnUse" x="44" y="18" width="2296" height="1546">
<path d="M2340 18.7969H44V1563.2H2340V18.7969Z" fill="white"/>
</mask>
<g mask="url(#mask9_961_1023)">
<path d="M1262.6 897.097C1262.6 897.097 1161.7 1032.1 1160 1115.9C1159.7 1131.3 1156.3 1140.8 1151 1145.9L1090.8 1058.6L1025.8 909.897L1049.7 884.297L1058.2 854.397L1123.2 810.797L1129.2 811.697L1141.2 810.797L1219.5 838.597L1262.6 897.097Z" fill="#E2202D"/>
</g>
<mask id="mask10_961_1023" style="mask-type:luminance" maskUnits="userSpaceOnUse" x="44" y="18" width="2296" height="1546">
<path d="M2340 18.7969H44V1563.2H2340V18.7969Z" fill="white"/>
</mask>
<g mask="url(#mask10_961_1023)">
<path d="M778 1340.4C608.4 1352 428.1 1340.1 291.7 1272.3C286.6 1253.5 334.4 1096.2 376.3 1068.9C418.2 1041.5 486.6 924.498 479.7 876.598C472.9 828.698 571.2 780.898 591.7 772.298C612.2 763.798 742.1 750.898 742.1 750.898L791.2 755.598L867.8 762.898C867.8 762.898 1008 891.998 1037 924.398C1066.1 956.898 1183.2 1007.3 1198.5 1102.2C1213 1162 1248.9 1228.7 1285.7 1237.2C1300.5 1241 1053.3 1321.6 778 1340.4Z" fill="#FEEADA"/>
</g>
<mask id="mask11_961_1023" style="mask-type:luminance" maskUnits="userSpaceOnUse" x="44" y="18" width="2296" height="1546">
<path d="M2340 18.7969H44V1563.2H2340V18.7969Z" fill="white"/>
</mask>
<g mask="url(#mask11_961_1023)">
<path d="M778 1340.4L678 797.995L791.2 755.695L867.8 762.995C867.8 762.995 1008 892.095 1037 924.495C1066.1 956.995 1183.2 1007.4 1198.5 1102.3C1213 1162.1 1248.9 1228.8 1285.7 1237.3C1300.5 1241 1053.3 1321.6 778 1340.4Z" fill="#E2202D"/>
</g>
<mask id="mask12_961_1023" style="mask-type:luminance" maskUnits="userSpaceOnUse" x="44" y="18" width="2296" height="1546">
<path d="M2340 18.7969H44V1563.2H2340V18.7969Z" fill="white"/>
</mask>
<g mask="url(#mask12_961_1023)">
<path d="M510.402 1206.5L459.102 1624.5C459.102 1624.5 548.902 1629.6 666.802 1627.1C666.802 1629.7 682.202 1396.3 682.202 1396.3L707.802 1629.7C707.802 1629.7 869.402 1627.1 897.602 1619.4L838.602 1206.5L595.002 1144.9L510.402 1206.5Z" fill="#5E95CE"/>
</g>
<mask id="mask13_961_1023" style="mask-type:luminance" maskUnits="userSpaceOnUse" x="44" y="18" width="2296" height="1546">
<path d="M2340 18.7969H44V1563.2H2340V18.7969Z" fill="white"/>
</mask>
<g mask="url(#mask13_961_1023)">
<path d="M443.201 798.794C443.201 798.794 436.901 838.094 442.601 844.994C448.301 851.794 487.001 899.694 497.301 921.394C501.301 928.794 502.401 1187.49 497.901 1224.49C497.301 1227.29 723.001 1247.29 850.001 1233.59C851.101 1232.49 900.101 768.094 905.301 730.494C905.301 727.694 889.301 715.094 889.301 715.094L790.201 670.094C790.201 670.094 784.501 672.894 781.101 684.894C777.701 696.894 764.001 727.094 764.001 727.094L708.701 741.894L602.101 755.594L589.001 758.994H570.801C570.801 758.994 512.101 712.294 507.601 707.694C505.301 705.994 500.201 715.694 500.201 715.694L443.201 798.794Z" fill="#1B4773"/>
</g>
<mask id="mask14_961_1023" style="mask-type:luminance" maskUnits="userSpaceOnUse" x="44" y="18" width="2296" height="1546">
<path d="M2340 18.7969H44V1563.2H2340V18.7969Z" fill="white"/>
</mask>
<g mask="url(#mask14_961_1023)">
<path d="M764 726.995C763.4 728.695 756 773.195 718.4 781.695C624.4 797.095 584.5 766.295 584.5 759.495C584.5 754.295 593.3 750.195 597.3 745.695C598.6 744.295 599.4 742.795 599.3 741.195C598.7 733.195 619.2 728.095 619.2 728.095H621.5C621.5 728.095 704 697.695 713.8 693.895C726.9 688.795 743.1 692.195 749.1 693.295C758.2 694.995 753.7 709.795 755.4 712.695C758.2 717.295 766.3 720.195 764 726.995Z" fill="#E2202D"/>
</g>
<mask id="mask15_961_1023" style="mask-type:luminance" maskUnits="userSpaceOnUse" x="44" y="18" width="2296" height="1546">
<path d="M2340 18.7969H44V1563.2H2340V18.7969Z" fill="white"/>
</mask>
<g mask="url(#mask15_961_1023)">
<path d="M1235.2 493.695C1235.2 493.695 1193.3 503.095 1173.7 515.895C1154 528.695 1061.7 628.695 1048.9 641.495C1036.1 654.295 1040.4 696.195 1040.4 696.195L1076.3 756.895H1091.7C1091.7 756.895 1096.8 767.195 1119.9 744.095C1124.2 738.995 1124.2 738.995 1124.2 738.995L1132.7 733.895L1129.3 811.695L1260.9 906.595L1319 921.095H1348.1L1416.5 909.995V756.095C1416.5 756.095 1466.1 735.595 1490 715.895C1490 715.895 1425.9 548.395 1409.7 533.795C1393.5 519.295 1348.2 481.695 1348.2 481.695L1317.4 482.595L1235.2 493.695Z" fill="#FEEADA"/>
</g>
<mask id="mask16_961_1023" style="mask-type:luminance" maskUnits="userSpaceOnUse" x="44" y="18" width="2296" height="1546">
<path d="M2340 18.7969H44V1563.2H2340V18.7969Z" fill="white"/>
</mask>
<g mask="url(#mask16_961_1023)">
<path d="M1460.9 701.4C1460.9 701.4 1460.9 701.4 1460.9 715.9C1459.7 726.4 1457.7 733.8 1455.6 739.1C1451.9 748.5 1448.1 750.9 1448.1 750.9L1432.7 753.5L1372.9 733L1314.8 700.5L1260 674C1260 674 1257.4 667.2 1259.1 661.2C1262.2 654.2 1265.6 648.5 1269 643.7C1282.3 625.1 1295.8 621.9 1295.8 621.9L1306.1 619.3L1312.9 615L1369.3 627L1430 661.2L1460.9 701.4Z" fill="#FEEADA"/>
</g>
<mask id="mask17_961_1023" style="mask-type:luminance" maskUnits="userSpaceOnUse" x="44" y="18" width="2296" height="1546">
<path d="M2340 18.7969H44V1563.2H2340V18.7969Z" fill="white"/>
</mask>
<g mask="url(#mask17_961_1023)">
<path d="M1923.3 942.397C1846.8 955.197 1784.2 957.797 1737.6 956.597C1675.6 954.997 1642.1 946.597 1642.1 946.597C1642.1 946.597 1650.6 861.097 1649.8 839.797C1648.9 818.397 1631 777.397 1631 777.397C1631 777.397 1600.2 805.597 1596.8 806.497C1593.4 807.397 1583.1 797.997 1583.1 797.997L1550.6 780.897L1548 693.697C1548 693.697 1616.4 623.597 1627.5 609.097C1638.6 594.597 1655.7 574.897 1655.7 574.897L1682.2 568.097L1721.7 545.597L1841.2 477.497L1856.6 476.597L1935.2 469.797L1940.3 470.697C1940.3 470.697 1915.5 747.597 1914.7 753.597C1913.9 759.497 1925 940.697 1923.3 942.397Z" fill="#E2202D"/>
</g>
<mask id="mask18_961_1023" style="mask-type:luminance" maskUnits="userSpaceOnUse" x="44" y="18" width="2296" height="1546">
<path d="M2340 18.7969H44V1563.2H2340V18.7969Z" fill="white"/>
</mask>
<g mask="url(#mask18_961_1023)">
<path d="M1173.7 515.894C1161.7 530.394 1114.7 779.994 1115.6 793.694C1116.5 807.394 1154.1 815.094 1190.8 815.894C1194.2 814.994 1214.7 570.594 1226.7 539.794C1226.7 535.494 1233.5 505.594 1234.4 505.594C1235.3 505.594 1235.3 493.594 1235.3 493.594C1235.3 493.594 1185.7 501.394 1173.7 515.894Z" fill="#E2202D"/>
</g>
<mask id="mask19_961_1023" style="mask-type:luminance" maskUnits="userSpaceOnUse" x="44" y="18" width="2296" height="1546">
<path d="M2340 18.7969H44V1563.2H2340V18.7969Z" fill="white"/>
</mask>
<g mask="url(#mask19_961_1023)">
<path d="M1374.5 517.596C1372.8 516.696 1349.1 487.096 1322.9 491.696C1296.7 496.296 1323.2 496.296 1323.2 496.296C1323.2 496.296 1331.7 495.396 1332.6 507.396C1333.5 519.396 1326.6 599.696 1319.8 612.496C1313 625.296 1334.3 615.096 1334.3 615.096L1369.3 627.096L1389 633.896L1394.1 638.196C1394.2 638.096 1406.2 562.096 1374.5 517.596Z" fill="#E2202D"/>
</g>
<mask id="mask20_961_1023" style="mask-type:luminance" maskUnits="userSpaceOnUse" x="44" y="18" width="2296" height="1546">
<path d="M2340 18.7969H44V1563.2H2340V18.7969Z" fill="white"/>
</mask>
<g mask="url(#mask20_961_1023)">
<path d="M764 726.997C763.4 728.697 756 773.197 718.4 781.697C624.4 797.097 584.5 766.297 584.5 759.497C584.5 754.297 593.3 750.197 597.3 745.697C601.6 747.197 614.7 751.597 617.5 752.097C620.9 752.697 724.6 786.297 755.4 712.797C758.2 717.297 766.3 720.197 764 726.997Z" fill="#FEEADA"/>
</g>
<mask id="mask21_961_1023" style="mask-type:luminance" maskUnits="userSpaceOnUse" x="44" y="18" width="2296" height="1546">
<path d="M2340 18.7969H44V1563.2H2340V18.7969Z" fill="white"/>
</mask>
<g mask="url(#mask21_961_1023)">
<path d="M1460.9 701.4C1460.9 701.4 1460.9 701.4 1460.9 715.9C1459.7 726.4 1457.7 733.8 1455.6 739.1C1410.4 659.7 1305.3 646.1 1269.1 643.7C1282.4 625.1 1295.9 621.9 1295.9 621.9L1306.2 619.3L1313 615L1369.4 627L1430.1 661.2L1460.9 701.4Z" fill="#E2202D"/>
</g>
<mask id="mask22_961_1023" style="mask-type:luminance" maskUnits="userSpaceOnUse" x="44" y="18" width="2296" height="1546">
<path d="M2340 18.7969H44V1563.2H2340V18.7969Z" fill="white"/>
</mask>
<g mask="url(#mask22_961_1023)">
<path d="M771.998 448.297C771.398 448.297 770.798 448.097 770.298 447.697L744.698 424.597C744.598 424.497 744.598 424.497 744.498 424.397C700.398 375.097 682.098 338.197 690.198 314.797C695.798 298.597 711.898 295.597 712.598 295.497C713.998 295.297 715.298 296.197 715.498 297.497C715.698 298.897 714.798 300.197 713.498 300.397C712.898 300.497 699.598 303.097 694.998 316.497C689.898 331.297 694.998 361.497 748.198 420.997L773.698 443.997C774.698 444.897 774.798 446.497 773.898 447.497C773.298 448.097 772.698 448.297 771.998 448.297Z" fill="#19130F"/>
</g>
<mask id="mask23_961_1023" style="mask-type:luminance" maskUnits="userSpaceOnUse" x="44" y="18" width="2296" height="1546">
<path d="M2340 18.7969H44V1563.2H2340V18.7969Z" fill="white"/>
</mask>
<g mask="url(#mask23_961_1023)">
<path d="M768.601 489.794C763.201 489.794 758.901 488.594 755.401 486.194C745.901 479.494 748.001 466.494 748.101 465.994C748.201 465.494 748.401 464.994 748.801 464.594L806.901 408.194C807.901 407.194 809.501 407.294 810.401 408.294C811.401 409.294 811.301 410.894 810.301 411.794L753.001 467.494C752.801 469.994 752.501 477.994 758.401 482.094C764.901 486.694 780.501 487.694 817.801 466.694C819.001 465.994 820.501 466.494 821.201 467.694C821.901 468.894 821.401 470.394 820.201 471.094C798.101 483.494 780.801 489.794 768.601 489.794Z" fill="#19130F"/>
</g>
<mask id="mask24_961_1023" style="mask-type:luminance" maskUnits="userSpaceOnUse" x="44" y="18" width="2296" height="1546">
<path d="M2340 18.7969H44V1563.2H2340V18.7969Z" fill="white"/>
</mask>
<g mask="url(#mask24_961_1023)">
<path d="M767.201 542.995C757.501 542.995 746.201 537.595 738.501 528.695C737.601 527.695 737.701 526.095 738.801 525.195C739.801 524.295 741.401 524.395 742.301 525.495C751.801 536.595 765.901 540.095 773.501 536.995C778.101 535.095 780.301 530.895 779.801 524.795C778.501 506.795 730.701 468.195 712.401 454.795C711.301 453.995 711.001 452.395 711.901 451.295C712.701 450.195 714.301 449.895 715.401 450.795C718.201 452.795 783.001 500.495 784.801 524.395C785.501 532.595 782.001 538.795 775.401 541.595C772.801 542.495 770.101 542.995 767.201 542.995Z" fill="#19130F"/>
</g>
<mask id="mask25_961_1023" style="mask-type:luminance" maskUnits="userSpaceOnUse" x="44" y="18" width="2296" height="1546">
<path d="M2340 18.7969H44V1563.2H2340V18.7969Z" fill="white"/>
</mask>
<g mask="url(#mask25_961_1023)">
<path d="M782.201 526.994C781.101 526.994 780.001 526.194 779.801 525.094C779.501 523.794 780.301 522.394 781.701 522.094C791.001 519.894 796.901 515.894 799.201 509.994C803.601 498.494 793.201 483.394 793.101 483.194C792.301 482.094 792.601 480.494 793.701 479.694C794.801 478.894 796.401 479.194 797.201 480.294C797.701 480.994 809.201 497.794 803.901 511.694C801.001 519.194 794.001 524.294 782.901 526.894C782.601 526.994 782.401 526.994 782.201 526.994Z" fill="#19130F"/>
</g>
<mask id="mask26_961_1023" style="mask-type:luminance" maskUnits="userSpaceOnUse" x="44" y="18" width="2296" height="1546">
<path d="M2340 18.7969H44V1563.2H2340V18.7969Z" fill="white"/>
</mask>
<g mask="url(#mask26_961_1023)">
<path d="M747.199 567.096C745.799 567.096 744.699 565.996 744.699 564.596C744.699 563.196 745.799 562.096 747.199 562.096C753.699 562.096 758.099 560.396 760.299 557.096C763.699 551.996 761.399 543.596 760.299 540.796C759.799 539.496 760.399 538.096 761.699 537.496C762.999 536.996 764.399 537.596 764.999 538.896C765.199 539.396 770.099 551.596 764.599 559.896C761.199 564.696 755.399 567.096 747.199 567.096Z" fill="#19130F"/>
</g>
<mask id="mask27_961_1023" style="mask-type:luminance" maskUnits="userSpaceOnUse" x="44" y="18" width="2296" height="1546">
<path d="M2340 18.7969H44V1563.2H2340V18.7969Z" fill="white"/>
</mask>
<g mask="url(#mask27_961_1023)">
<path d="M795.1 627.797C794.3 627.797 793.6 627.397 793.1 626.797C792.3 625.697 792.5 624.097 793.6 623.297C794.6 622.597 895.4 548.797 918.9 525.297C919.9 524.297 921.5 524.297 922.4 525.297C923.3 526.297 923.4 527.897 922.4 528.797C898.6 552.597 800.6 624.297 796.5 627.297C796.1 627.697 795.6 627.797 795.1 627.797Z" fill="#19130F"/>
</g>
<mask id="mask28_961_1023" style="mask-type:luminance" maskUnits="userSpaceOnUse" x="44" y="18" width="2296" height="1546">
<path d="M2340 18.7969H44V1563.2H2340V18.7969Z" fill="white"/>
</mask>
<g mask="url(#mask28_961_1023)">
<path d="M1737.8 952.695C1737.7 954.095 1737.7 955.395 1737.6 956.695C1675.6 955.095 1642.1 946.695 1642.1 946.695C1642.1 946.695 1650.6 861.195 1649.8 839.895C1648.9 818.495 1631 777.495 1631 777.495C1631 777.495 1600.2 805.695 1596.8 806.595C1593.4 807.495 1583.1 798.095 1583.1 798.095L1550.6 780.995L1548 693.795C1548 693.795 1616.4 623.695 1627.5 609.195C1638.6 594.695 1655.7 574.995 1655.7 574.995L1682.2 568.195L1721.7 545.695L1751.4 585.295C1751.4 585.295 1705.2 718.595 1715.5 790.395C1720.7 821.095 1754.9 781.695 1737.8 952.695Z" fill="#FEEADA"/>
</g>
<mask id="mask29_961_1023" style="mask-type:luminance" maskUnits="userSpaceOnUse" x="44" y="18" width="2296" height="1546">
<path d="M2340 18.7969H44V1563.2H2340V18.7969Z" fill="white"/>
</mask>
<g mask="url(#mask29_961_1023)">
<path d="M1675.4 354.398C1675.4 354.398 1539.5 525.798 1653.6 574.098C1653.6 574.098 1678.8 574.098 1688.2 572.798C1697.6 571.498 1719.4 571.098 1724.1 571.498C1728.8 571.898 1801.9 562.498 1801.9 562.498L1804.5 562.098C1804.5 562.098 1826.7 564.198 1830.6 563.398C1830.6 562.498 1847.3 481.798 1847.3 481.798L1857.6 445.498C1857.6 445.498 1850.8 442.898 1845.2 436.498C1839.6 430.098 1816.1 397.198 1806.3 388.198C1796.5 379.198 1793.5 379.198 1788.4 376.698C1783.3 374.098 1689.7 354.498 1689.7 354.498L1675.4 354.398Z" fill="#2A282F"/>
</g>
<mask id="mask30_961_1023" style="mask-type:luminance" maskUnits="userSpaceOnUse" x="44" y="18" width="2296" height="1546">
<path d="M2340 18.7969H44V1563.2H2340V18.7969Z" fill="white"/>
</mask>
<g mask="url(#mask30_961_1023)">
<path d="M569.101 634.694C569.101 634.694 546.301 641.494 541.201 626.694C541.801 627.794 487.101 604.994 509.301 555.494C509.301 554.894 487.101 493.994 573.701 491.694C568.601 489.994 593.101 432.994 652.301 454.694C656.301 455.794 703.601 443.894 715.501 491.194C718.301 489.494 755.401 507.694 744.601 538.494C744.001 543.094 775.401 570.394 749.701 597.194C746.801 603.494 761.101 610.294 744.001 629.694C732.001 637.694 736.001 635.994 736.001 635.994C736.001 635.994 738.801 664.494 717.801 664.494C696.801 664.394 569.101 634.694 569.101 634.694Z" fill="#2A282F"/>
</g>
<mask id="mask31_961_1023" style="mask-type:luminance" maskUnits="userSpaceOnUse" x="44" y="18" width="2296" height="1546">
<path d="M2340 18.7969H44V1563.2H2340V18.7969Z" fill="white"/>
</mask>
<g mask="url(#mask31_961_1023)">
<path d="M1421.5 737.297C1421.5 737.297 1409 748.697 1410.1 750.397C1411.2 752.097 1419.2 756.097 1419.2 756.097L1430.6 761.797L1410.7 786.297C1410.7 786.297 1397 799.997 1394.7 800.497C1392.4 801.097 1387.9 814.697 1386.7 816.497C1385.6 818.197 1383.3 830.697 1383.3 830.697L1389.6 828.997C1389.6 828.997 1395.9 835.297 1401 828.997C1406.1 822.697 1420.9 816.997 1421.5 800.497C1422.1 783.997 1435.7 770.897 1435.7 770.897L1446 754.897L1437.5 751.497C1437.5 751.497 1425 739.597 1421.5 737.297Z" fill="#2A282F"/>
</g>
<mask id="mask32_961_1023" style="mask-type:luminance" maskUnits="userSpaceOnUse" x="44" y="18" width="2296" height="1546">
<path d="M2340 18.7969H44V1563.2H2340V18.7969Z" fill="white"/>
</mask>
<g mask="url(#mask32_961_1023)">
<path d="M1049.8 487.698C1049.8 487.698 1061.8 508.198 1049.8 520.998C1050.7 522.698 1063.5 650.898 1071.2 679.098C1072.9 681.698 1100.3 712.398 1097.7 754.298C1098.6 755.998 1072.1 766.298 1072.1 766.298L1003.7 740.698C1003.7 740.698 984.901 537.298 985.801 503.098C984.901 495.398 968.701 470.598 974.701 450.098C980.701 429.598 996.101 412.498 1001.2 409.898C1006.3 407.298 1018.3 409.898 1016.6 423.598C1014.9 425.298 1035.4 421.898 1039.7 439.798C1040.6 438.098 1049.1 441.498 1050 453.498C1049.1 451.798 1067.1 457.798 1056.8 481.698C1054.9 483.398 1049.8 487.698 1049.8 487.698Z" fill="#E86A48"/>
</g>
<mask id="mask33_961_1023" style="mask-type:luminance" maskUnits="userSpaceOnUse" x="44" y="18" width="2296" height="1546">
<path d="M2340 18.7969H44V1563.2H2340V18.7969Z" fill="white"/>
</mask>
<g mask="url(#mask33_961_1023)">
<path d="M1197 301.997C1197 301.997 1181 260.997 1214.1 252.997C1214.1 252.397 1257.4 213.097 1325.2 242.197C1406.1 275.197 1405 315.097 1406.7 335.597C1406.1 337.897 1469.4 349.297 1445.4 414.197C1421.5 479.197 1416.9 520.797 1419.8 526.997C1422.6 533.297 1422.6 550.397 1399.9 535.497C1377.1 520.697 1368 516.697 1365.7 514.397C1363.4 512.097 1342.9 492.197 1323 491.597C1312.2 492.197 1295.6 473.897 1295.6 473.897L1197 301.997Z" fill="#492523"/>
</g>
<mask id="mask34_961_1023" style="mask-type:luminance" maskUnits="userSpaceOnUse" x="44" y="18" width="2296" height="1546">
<path d="M2340 18.7969H44V1563.2H2340V18.7969Z" fill="white"/>
</mask>
<g mask="url(#mask34_961_1023)">
<path d="M908.2 577.195C908.2 577.195 1019 718.495 1124.2 811.695C1124.2 812.595 1050.7 884.395 1050.7 884.395C1050.7 884.395 907.9 736.395 891.6 703.995C875.4 671.495 880.5 596.295 880.5 596.295L908.2 577.195Z" fill="#F58A81"/>
</g>
<mask id="mask35_961_1023" style="mask-type:luminance" maskUnits="userSpaceOnUse" x="44" y="18" width="2296" height="1546">
<path d="M2340 18.7969H44V1563.2H2340V18.7969Z" fill="white"/>
</mask>
<g mask="url(#mask35_961_1023)">
<path d="M301.5 425.795C291.3 402.095 288.7 355.295 288.7 355.295C272.6 350.795 267.7 372.595 266.3 386.095C265.7 391.995 264.4 385.995 264.4 385.995L258 383.395C258 383.395 191.3 326.995 183.6 337.195C173.3 360.295 224.6 393.595 225.9 393.595C218.5 394.795 215.9 404.295 220.2 403.995C199.1 406.995 204.1 433.395 202.9 434.695C195.2 467.995 218.3 457.795 222.1 466.695C225.9 475.695 259.3 493.595 260.6 494.895C276 552.595 404.2 776.895 455.5 823.095C490.1 785.895 506.8 711.595 506.8 711.595C506.8 711.595 343.8 524.495 301.5 425.795Z" fill="#B84A3E"/>
</g>
<mask id="mask36_961_1023" style="mask-type:luminance" maskUnits="userSpaceOnUse" x="44" y="18" width="2296" height="1546">
<path d="M2340 18.7969H44V1563.2H2340V18.7969Z" fill="white"/>
</mask>
<g mask="url(#mask36_961_1023)">
<path d="M873.2 380.896C873.2 380.896 889.9 325.796 883.5 309.096C878.4 297.596 866.8 298.796 863 298.796C859.2 298.796 847.6 285.996 834.8 294.996C831 292.396 814.3 278.296 798.9 296.296C800.2 293.696 791.2 230.896 791.2 230.896C791.2 230.896 759.2 216.796 778.4 310.396C775.8 305.296 736.1 279.596 731 303.996C731 307.796 777.2 344.996 777.2 344.996C777.2 344.996 781 375.796 796.4 385.996C796.4 385.996 840 552.696 788.7 671.896C788.7 676.996 824.6 732.196 897.7 730.896C897.6 730.896 938.6 587.296 873.2 380.896Z" fill="#B84A3E"/>
</g>
<mask id="mask37_961_1023" style="mask-type:luminance" maskUnits="userSpaceOnUse" x="44" y="18" width="2296" height="1546">
<path d="M2340 18.7969H44V1563.2H2340V18.7969Z" fill="white"/>
</mask>
<g mask="url(#mask37_961_1023)">
<path d="M565.1 572.298C565.1 572.298 566.8 644.098 566 658.598C565.1 673.098 554 737.198 619 728.698C620.7 729.598 667.7 751.798 729.3 708.198C727.6 707.298 719 655.198 719 655.198C719 655.198 764.3 644.098 746.4 603.098C734.4 589.398 719 598.798 712.2 612.498C709.6 614.198 679.7 594.598 697.7 574.898C699.4 572.298 658.4 556.998 667.8 533.898C662.7 534.798 612.2 570.698 578.1 557.798C577.1 557.798 580.5 567.198 565.1 572.298Z" fill="#B84A3E"/>
</g>
<mask id="mask38_961_1023" style="mask-type:luminance" maskUnits="userSpaceOnUse" x="44" y="18" width="2296" height="1546">
<path d="M2340 18.7969H44V1563.2H2340V18.7969Z" fill="white"/>
</mask>
<g mask="url(#mask38_961_1023)">
<path d="M1681.4 354.399C1681.4 354.399 1614.7 519.399 1721.6 512.499C1721.6 512.499 1730.1 542.399 1722.5 571.499C1719.9 571.499 1730.2 655.299 1737 656.099C1743.8 656.999 1772 627.899 1804.5 562.099C1803.6 561.199 1778 518.499 1783.1 490.299C1788.2 462.099 1793.4 382.599 1788.2 376.599C1783.1 370.599 1754 347.499 1681.4 354.399Z" fill="#D5836F"/>
</g>
<mask id="mask39_961_1023" style="mask-type:luminance" maskUnits="userSpaceOnUse" x="44" y="18" width="2296" height="1546">
<path d="M2340 18.7969H44V1563.2H2340V18.7969Z" fill="white"/>
</mask>
<g mask="url(#mask39_961_1023)">
<path d="M1862.6 139.001C1862.6 139.001 1866.9 148.401 1872 158.701C1874.6 164.701 1859.2 427.101 1847.2 481.801C1848.9 485.201 1897.6 498.001 1937.8 469.801C1936.9 472.401 1948.9 210.001 1946.3 154.401C1947.2 121.101 1932.6 59.5007 1916.4 55.3007C1907.9 51.9007 1907 56.2007 1907 56.2007C1907 56.2007 1891.6 52.8007 1883.1 59.6007C1881.4 59.6007 1867.7 61.3007 1866.9 66.4007C1868.6 63.8007 1848.1 66.4007 1848.1 86.9007C1849 100.601 1849 116.801 1854.9 118.501C1857.5 120.201 1862.6 139.001 1862.6 139.001Z" fill="#D5836F"/>
</g>
<mask id="mask40_961_1023" style="mask-type:luminance" maskUnits="userSpaceOnUse" x="44" y="18" width="2296" height="1546">
<path d="M2340 18.7969H44V1563.2H2340V18.7969Z" fill="white"/>
</mask>
<g mask="url(#mask40_961_1023)">
<path d="M1531.8 503.098C1531.8 503.098 1553.2 509.098 1541.2 545.798C1541.2 547.498 1536.9 551.798 1536.9 551.798C1536.9 551.798 1548 567.198 1538.6 580.898C1537.7 583.498 1558.3 691.198 1562.5 710.798L1570.2 707.398C1570.2 707.398 1583.9 725.398 1589 799.698C1588.1 796.298 1513.8 830.498 1500.1 786.898C1486.4 743.298 1482.1 588.598 1479.6 578.398C1477 568.098 1461.7 517.698 1468.5 498.098C1475.3 478.398 1483 476.698 1486.4 479.298C1489.8 481.898 1505.2 478.398 1507.8 484.398C1512.1 485.298 1518.9 487.798 1520.6 493.798C1522.4 494.598 1531.8 495.398 1531.8 503.098Z" fill="#D5836F"/>
</g>
<mask id="mask41_961_1023" style="mask-type:luminance" maskUnits="userSpaceOnUse" x="44" y="18" width="2296" height="1546">
<path d="M2340 18.7969H44V1563.2H2340V18.7969Z" fill="white"/>
</mask>
<g mask="url(#mask41_961_1023)">
<path d="M1455.7 765.496C1444.6 809.096 1403.6 807.396 1401 808.196C1374.5 843.196 1383.9 907.296 1383.9 907.296C1383.9 907.296 1397.6 911.596 1400.1 912.396C1366.8 991.896 1311.2 999.596 1286.4 988.496C1250.5 973.096 1256.5 919.296 1260.8 912.396C1269.3 906.396 1271.9 892.696 1271.9 892.696C1271.9 892.696 1273.8 873.496 1274.8 860.796C1275.2 855.696 1275.5 851.596 1275.4 850.396C1275.4 850.096 1275.4 849.996 1275.3 849.996C1154.8 821.796 1261.6 671.396 1261.6 671.396C1377 662.896 1423.1 737.196 1421.4 737.196C1415.4 747.496 1422.3 750.896 1423.1 751.696C1440.4 742.396 1457.4 738.996 1455.7 765.496Z" fill="#F58A81"/>
</g>
<mask id="mask42_961_1023" style="mask-type:luminance" maskUnits="userSpaceOnUse" x="44" y="18" width="2296" height="1546">
<path d="M2340 18.7969H44V1563.2H2340V18.7969Z" fill="white"/>
</mask>
<g mask="url(#mask42_961_1023)">
<path d="M1559.2 870.595C1559.2 870.595 1599.4 850.095 1601.9 848.395C1605.3 846.695 1842.9 664.595 1845.5 661.195C1844.6 661.195 1884.8 714.195 1888.2 717.595C1888.2 718.495 1678.8 916.695 1648 933.795C1617.2 950.895 1574.5 974.795 1574.5 974.795C1574.5 974.795 1558.3 908.195 1559.2 870.595Z" fill="#F58A81"/>
</g>
<mask id="mask43_961_1023" style="mask-type:luminance" maskUnits="userSpaceOnUse" x="44" y="18" width="2296" height="1546">
<path d="M2340 18.7969H44V1563.2H2340V18.7969Z" fill="white"/>
</mask>
<g mask="url(#mask43_961_1023)">
<path d="M1369.4 402.2C1354 443.2 1320.7 431.3 1321.5 432.1C1313 446.6 1323.2 496.2 1323.2 496.2C1323.2 496.2 1323.2 496.2 1325.8 496.2C1328.4 496.2 1334.3 504.7 1332.6 507.3C1295 574 1259.9 591.9 1242.9 585.1C1210.4 576.6 1232.6 509.9 1234.4 505.6C1235.1 494.2 1234 486.3 1232.7 480.8C1231 474 1228.8 471.1 1229.1 470.6C1229.1 470.5 1229.2 470.5 1229.3 470.5C1119.9 451.7 1199.4 290.2 1199.4 290.2C1202 293.6 1218.2 295.3 1233.6 285.1C1261 271.4 1303.7 298.8 1300.3 308.2C1286.6 339.8 1311.4 345.8 1314.8 360.3C1318.2 374.8 1334.5 385.9 1336.2 385.1C1348.9 374.9 1377.1 375.8 1369.4 402.2Z" fill="#E86A48"/>
</g>
<mask id="mask44_961_1023" style="mask-type:luminance" maskUnits="userSpaceOnUse" x="44" y="18" width="2296" height="1546">
<path d="M2340 18.7969H44V1563.2H2340V18.7969Z" fill="white"/>
</mask>
<g mask="url(#mask44_961_1023)">
<path d="M1170.3 321.898L1227.9 334.998V340.698C1227.9 340.698 1238.7 342.398 1247.3 345.798L1250.7 340.698C1250.7 340.698 1290 346.998 1315.1 355.498C1317.9 358.298 1312.3 410.198 1272.4 403.398C1245.6 399.398 1239.9 365.798 1246.2 350.398C1247.3 349.798 1234.2 343.598 1226.3 345.298C1227.4 346.398 1222.3 383.998 1185.3 380.598C1166.3 378.298 1149.2 354.998 1170.3 321.898Z" fill="#2A282F"/>
</g>
<mask id="mask45_961_1023" style="mask-type:luminance" maskUnits="userSpaceOnUse" x="44" y="18" width="2296" height="1546">
<path d="M2340 18.7969H44V1563.2H2340V18.7969Z" fill="white"/>
</mask>
<g mask="url(#mask45_961_1023)">
<path d="M1294.5 620.494C1294.5 620.494 1285.4 617.694 1282.5 611.394C1282.5 610.294 1292.8 615.394 1300.2 615.994C1300.2 615.994 1297.9 591.494 1303.6 584.094C1305.3 584.094 1315.6 602.294 1331.5 603.994C1332.6 605.094 1354.3 590.894 1356.6 597.694C1358.9 604.494 1357.2 613.694 1367.4 612.494C1377.7 611.394 1390.8 604.494 1393.6 622.794C1398.2 634.194 1401 634.794 1410.7 633.094C1420.4 631.394 1419.2 637.694 1419.8 645.094C1420.4 652.494 1422.6 650.794 1434 650.194C1445.4 649.594 1452.2 652.494 1446.5 661.594C1440.8 670.694 1447.6 667.294 1456.8 667.294C1465.9 667.294 1463.6 676.994 1457.4 687.194C1458 689.494 1464.2 697.994 1469.9 699.194C1475.6 700.294 1480.7 711.194 1472.2 708.294C1463.7 705.494 1469.4 731.694 1459.1 713.994C1459.2 713.394 1444.3 639.894 1294.5 620.494Z" fill="#2A282F"/>
</g>
<mask id="mask46_961_1023" style="mask-type:luminance" maskUnits="userSpaceOnUse" x="44" y="18" width="2296" height="1546">
<path d="M2340 18.7969H44V1563.2H2340V18.7969Z" fill="white"/>
</mask>
<g mask="url(#mask46_961_1023)">
<path d="M1712.1 335.197C1712.1 335.197 1730 296.297 1760.8 305.297C1785.6 313.397 1783.5 331.397 1779.2 350.197C1779.7 350.097 1744.6 332.597 1712.1 335.197Z" fill="#2A282F"/>
</g>
<mask id="mask47_961_1023" style="mask-type:luminance" maskUnits="userSpaceOnUse" x="44" y="18" width="2296" height="1546">
<path d="M2340 18.7969H44V1563.2H2340V18.7969Z" fill="white"/>
</mask>
<g mask="url(#mask47_961_1023)">
<path d="M621.501 729.897C637.501 730.997 688.701 715.097 706.401 684.897C707.001 684.297 683.001 724.797 636.301 734.997C635.801 734.397 617.601 729.597 621.501 729.897Z" fill="#2A282F"/>
</g>
<mask id="mask48_961_1023" style="mask-type:luminance" maskUnits="userSpaceOnUse" x="44" y="18" width="2296" height="1546">
<path d="M2340 18.7969H44V1563.2H2340V18.7969Z" fill="white"/>
</mask>
<g mask="url(#mask48_961_1023)">
<path d="M1296.7 434.695C1290.2 444.795 1266.6 478.895 1232.7 480.895C1231 474.095 1228.8 471.195 1229.1 470.695L1229.3 470.595C1229.2 470.595 1274.3 468.495 1296.7 434.695Z" fill="#2A282F"/>
</g>
<mask id="mask49_961_1023" style="mask-type:luminance" maskUnits="userSpaceOnUse" x="44" y="18" width="2296" height="1546">
<path d="M2340 18.7969H44V1563.2H2340V18.7969Z" fill="white"/>
</mask>
<g mask="url(#mask49_961_1023)">
<path d="M1298.4 431.898C1298.2 432.298 1298 432.598 1297.7 432.998C1298.1 432.498 1298.3 432.098 1298.4 431.898Z" fill="#2A282F"/>
</g>
<mask id="mask50_961_1023" style="mask-type:luminance" maskUnits="userSpaceOnUse" x="44" y="18" width="2296" height="1546">
<path d="M2340 18.7969H44V1563.2H2340V18.7969Z" fill="white"/>
</mask>
<g mask="url(#mask50_961_1023)">
<path d="M1297.1 434.1C1297.3 433.7 1297.6 433.4 1297.8 433C1297.6 433.3 1297.3 433.7 1297.1 434.1Z" fill="#2A282F"/>
</g>
<mask id="mask51_961_1023" style="mask-type:luminance" maskUnits="userSpaceOnUse" x="44" y="18" width="2296" height="1546">
<path d="M2340 18.7969H44V1563.2H2340V18.7969Z" fill="white"/>
</mask>
<g mask="url(#mask51_961_1023)">
<path d="M1380.5 800.297C1381.1 800.797 1345.7 878.097 1274.9 860.997C1275.3 855.897 1275.6 851.797 1275.5 850.597C1281.9 858.697 1352 848.397 1380.5 800.297Z" fill="#2A282F"/>
</g>
<mask id="mask52_961_1023" style="mask-type:luminance" maskUnits="userSpaceOnUse" x="44" y="18" width="2296" height="1546">
<path d="M2340 18.7969H44V1563.2H2340V18.7969Z" fill="white"/>
</mask>
<g mask="url(#mask52_961_1023)">
<path d="M1721.6 512.5L1713.9 516.8L1716.2 520.8C1758.1 519.1 1772.2 487.1 1773.1 485.5C1756 508.2 1721.6 512.5 1721.6 512.5Z" fill="#2A282F"/>
</g>
<mask id="mask53_961_1023" style="mask-type:luminance" maskUnits="userSpaceOnUse" x="44" y="18" width="2296" height="1546">
<path d="M2340 18.7969H44V1563.2H2340V18.7969Z" fill="white"/>
</mask>
<g mask="url(#mask53_961_1023)">
<path d="M1819.4 629.6L1922 765.5L1950.2 746.3C1950.2 746.3 1965.6 761.7 1986.1 751.4C2006.6 741.1 2118.1 677 2111.7 638.6C2105.3 607.8 2091.2 614.2 2091.2 614.2C2091.2 614.2 2092.5 593.7 2070.7 579.6C2072 580.9 2074.5 534.7 2027.1 542.4C2029.7 543.7 2157.9 461.6 2101.5 424.5C2097.7 424.5 1968.2 501.4 1968.2 501.4C1968.2 501.4 1938.7 446.3 1900.3 501.4C1870.8 550.1 1841.3 569.3 1847.7 602.7C1847.6 601.4 1819.4 629.6 1819.4 629.6Z" fill="#FEEADA"/>
</g>
<mask id="mask54_961_1023" style="mask-type:luminance" maskUnits="userSpaceOnUse" x="44" y="18" width="2296" height="1546">
<path d="M2340 18.7969H44V1563.2H2340V18.7969Z" fill="white"/>
</mask>
<g mask="url(#mask54_961_1023)">
<path d="M630.101 668.096C630.101 668.096 652.901 674.696 661.701 696.296C665.101 709.996 633.501 723.696 619.801 698.896C607.901 675.796 621.001 665.496 630.101 668.096Z" fill="#5A120A"/>
</g>
<mask id="mask55_961_1023" style="mask-type:luminance" maskUnits="userSpaceOnUse" x="44" y="18" width="2296" height="1546">
<path d="M2340 18.7969H44V1563.2H2340V18.7969Z" fill="white"/>
</mask>
<g mask="url(#mask55_961_1023)">
<path d="M1201 419.299C1201 419.299 1224.1 422.699 1255.7 409.899C1260.8 408.999 1267.7 433.799 1236.9 446.699C1211.3 458.699 1193.3 430.499 1201 419.299Z" fill="#5A120A"/>
</g>
<mask id="mask56_961_1023" style="mask-type:luminance" maskUnits="userSpaceOnUse" x="44" y="18" width="2296" height="1546">
<path d="M2340 18.7969H44V1563.2H2340V18.7969Z" fill="white"/>
</mask>
<g mask="url(#mask56_961_1023)">
<path d="M1754 452.7C1754 452.7 1724.9 472.4 1700.2 463.8C1700.2 465.5 1692.5 498 1733.5 492C1769.4 483.4 1762.6 448.4 1754 452.7Z" fill="#5A120A"/>
</g>
<mask id="mask57_961_1023" style="mask-type:luminance" maskUnits="userSpaceOnUse" x="44" y="18" width="2296" height="1546">
<path d="M2340 18.7969H44V1563.2H2340V18.7969Z" fill="white"/>
</mask>
<g mask="url(#mask57_961_1023)">
<path d="M1295.9 771.5C1295.9 771.5 1339.5 771.5 1330.9 815.1C1325.8 840.7 1283 829.6 1288.2 805.7C1288.2 797.2 1282.6 791.6 1278.8 786.9C1275.4 782.6 1280.5 771.5 1295.9 771.5Z" fill="#5A120A"/>
</g>
<mask id="mask58_961_1023" style="mask-type:luminance" maskUnits="userSpaceOnUse" x="44" y="18" width="2296" height="1546">
<path d="M2340 18.7969H44V1563.2H2340V18.7969Z" fill="white"/>
</mask>
<g mask="url(#mask58_961_1023)">
<path d="M599.701 673.397C597.701 673.397 595.901 672.797 594.401 671.697C588.501 667.397 588.001 655.497 592.901 635.197C596.301 620.897 601.201 607.497 601.201 607.397C601.701 606.097 603.101 605.397 604.401 605.897C605.701 606.397 606.401 607.796 605.901 609.096C598.101 630.296 590.301 662.497 597.301 667.697C599.001 668.897 603.601 669.596 615.601 660.096C616.701 659.196 618.301 659.397 619.101 660.497C619.901 661.597 619.801 663.197 618.701 663.997C610.901 670.297 604.601 673.397 599.701 673.397Z" fill="#19130F"/>
</g>
<mask id="mask59_961_1023" style="mask-type:luminance" maskUnits="userSpaceOnUse" x="44" y="18" width="2296" height="1546">
<path d="M2340 18.7969H44V1563.2H2340V18.7969Z" fill="white"/>
</mask>
<g mask="url(#mask59_961_1023)">
<path d="M632.701 614.197C632.201 614.197 631.601 613.997 631.201 613.697C630.101 612.897 629.901 611.297 630.701 610.197C637.801 600.897 647.101 590.297 657.201 590.297C657.301 590.297 657.401 590.297 657.501 590.297C663.001 590.397 668.001 593.697 672.401 599.997C673.201 601.097 672.901 602.697 671.801 603.497C670.701 604.297 669.101 603.997 668.301 602.897C664.901 597.897 661.301 595.497 657.401 595.397C649.401 595.197 640.601 605.497 634.701 613.297C634.201 613.797 633.401 614.197 632.701 614.197Z" fill="#19130F"/>
</g>
<mask id="mask60_961_1023" style="mask-type:luminance" maskUnits="userSpaceOnUse" x="44" y="18" width="2296" height="1546">
<path d="M2340 18.7969H44V1563.2H2340V18.7969Z" fill="white"/>
</mask>
<g mask="url(#mask60_961_1023)">
<path d="M571.101 620.1C570.901 620.1 570.601 620.1 570.401 620C569.101 619.6 568.301 618.2 568.701 616.9C569.901 612.9 572.101 610.4 575.201 609.3C579.901 607.7 586.001 609.8 593.901 615.6C595.001 616.4 595.301 618 594.401 619.1C593.601 620.2 592.001 620.5 590.901 619.6C582.401 613.4 578.401 613.5 576.701 614C575.201 614.5 574.101 615.9 573.401 618.3C573.201 619.4 572.201 620.1 571.101 620.1Z" fill="#19130F"/>
</g>
<mask id="mask61_961_1023" style="mask-type:luminance" maskUnits="userSpaceOnUse" x="44" y="18" width="2296" height="1546">
<path d="M2340 18.7969H44V1563.2H2340V18.7969Z" fill="white"/>
</mask>
<g mask="url(#mask61_961_1023)">
<path d="M1212.5 400.695C1208.7 400.695 1206 399.595 1204.4 397.295C1200.7 391.995 1203.9 381.495 1214.3 365.195C1221.6 353.795 1229.8 343.595 1229.9 343.495C1230.8 342.395 1232.3 342.295 1233.4 343.095C1234.5 343.995 1234.6 345.495 1233.8 346.595C1220.7 362.795 1204.2 388.295 1208.5 394.395C1209.2 395.395 1212.2 397.395 1224.2 393.095C1225.5 392.595 1226.9 393.295 1227.4 394.595C1227.9 395.895 1227.2 397.295 1225.9 397.795C1220.4 399.695 1216 400.695 1212.5 400.695Z" fill="#19130F"/>
</g>
<mask id="mask62_961_1023" style="mask-type:luminance" maskUnits="userSpaceOnUse" x="44" y="18" width="2296" height="1546">
<path d="M2340 18.7969H44V1563.2H2340V18.7969Z" fill="white"/>
</mask>
<g mask="url(#mask62_961_1023)">
<path d="M1342.9 415C1342.8 415 1342.7 415 1342.5 415C1341.1 414.8 1340.2 413.5 1340.4 412.2C1340.7 410.2 1340.3 408.7 1339.2 407.8C1338.1 406.9 1336.3 406.8 1334.3 407.5C1333.3 407.9 1332.1 407.5 1331.5 406.6C1330.8 405.7 1330.8 404.5 1331.5 403.6C1334.3 399.8 1339.8 395.7 1346 395.1C1349.7 394.7 1353 395.6 1355.6 397.8C1356.6 398.7 1356.8 400.3 1355.9 401.3C1355 402.3 1353.4 402.5 1352.4 401.6C1350.9 400.3 1348.9 399.8 1346.6 400C1344.3 400.3 1342 401.2 1340 402.5C1340.9 402.8 1341.7 403.3 1342.4 403.9C1344.8 405.9 1345.9 409.2 1345.3 412.9C1345.2 414.1 1344.1 415 1342.9 415Z" fill="#19130F"/>
</g>
<mask id="mask63_961_1023" style="mask-type:luminance" maskUnits="userSpaceOnUse" x="44" y="18" width="2296" height="1546">
<path d="M2340 18.7969H44V1563.2H2340V18.7969Z" fill="white"/>
</mask>
<g mask="url(#mask63_961_1023)">
<path d="M1421.5 787.698C1420.3 787.698 1419.2 786.798 1419 785.598C1418.6 782.998 1417.5 781.298 1416.1 780.698C1414.6 780.098 1412.6 780.598 1410.4 782.098C1409.4 782.798 1408.1 782.698 1407.2 781.798C1406.3 780.898 1406.2 779.598 1406.9 778.598C1414.2 767.998 1423.1 764.598 1436.5 767.398C1437.9 767.698 1438.7 768.998 1438.4 770.398C1438.1 771.798 1436.8 772.598 1435.4 772.298C1427 770.598 1421.1 771.498 1416.1 775.598C1416.7 775.698 1417.3 775.898 1417.9 776.098C1421 777.398 1423.1 780.498 1423.8 784.798C1424 786.198 1423.1 787.398 1421.7 787.698C1421.8 787.598 1421.7 787.698 1421.5 787.698Z" fill="#19130F"/>
</g>
<mask id="mask64_961_1023" style="mask-type:luminance" maskUnits="userSpaceOnUse" x="44" y="18" width="2296" height="1546">
<path d="M2340 18.7969H44V1563.2H2340V18.7969Z" fill="white"/>
</mask>
<g mask="url(#mask64_961_1023)">
<path d="M1698.1 457.4C1694.6 457.4 1692.1 456.3 1690.4 454.2C1686 448.7 1689.1 437 1699.8 418.3C1707.3 405.2 1716.1 393.2 1716.2 393.1C1717 392 1718.6 391.7 1719.7 392.6C1720.8 393.4 1721.1 395 1720.2 396.1C1706.3 415 1689.1 444.6 1694.3 451.1C1695.3 452.3 1699.1 454.4 1713.7 447.9C1715 447.3 1716.4 447.9 1717 449.2C1717.6 450.5 1717 451.9 1715.7 452.5C1708.3 455.7 1702.5 457.4 1698.1 457.4Z" fill="#19130F"/>
</g>
<mask id="mask65_961_1023" style="mask-type:luminance" maskUnits="userSpaceOnUse" x="44" y="18" width="2296" height="1546">
<path d="M2340 18.7969H44V1563.2H2340V18.7969Z" fill="white"/>
</mask>
<g mask="url(#mask65_961_1023)">
<path d="M1292.5 749.195C1292.3 749.195 1292.1 749.195 1291.9 749.095C1277.8 745.595 1270.6 740.395 1269.8 733.295C1268.2 718.195 1299 702.595 1302.5 700.895C1303.7 700.295 1305.2 700.795 1305.8 701.995C1306.4 703.195 1305.9 704.695 1304.7 705.295C1292.6 711.295 1273.8 723.995 1274.8 732.695C1275.3 737.395 1281.6 741.295 1293.1 744.195C1294.4 744.495 1295.3 745.895 1294.9 747.195C1294.6 748.395 1293.6 749.195 1292.5 749.195Z" fill="#19130F"/>
</g>
<mask id="mask66_961_1023" style="mask-type:luminance" maskUnits="userSpaceOnUse" x="44" y="18" width="2296" height="1546">
<path d="M2340 18.7969H44V1563.2H2340V18.7969Z" fill="white"/>
</mask>
<g mask="url(#mask66_961_1023)">
<path d="M1275.4 711.598C1274.6 711.598 1273.9 711.198 1273.4 710.598C1269.1 704.598 1265.6 701.698 1262 701.098C1259.1 700.598 1255.9 701.698 1252.1 704.398C1251 705.198 1249.4 704.998 1248.6 703.798C1247.8 702.698 1248 701.098 1249.2 700.298C1254 696.798 1258.5 695.498 1262.8 696.198C1269.2 697.298 1274 702.898 1277.5 707.698C1278.3 708.798 1278 710.398 1276.9 711.198C1276.4 711.398 1275.9 711.598 1275.4 711.598Z" fill="#19130F"/>
</g>
<mask id="mask67_961_1023" style="mask-type:luminance" maskUnits="userSpaceOnUse" x="44" y="18" width="2296" height="1546">
<path d="M2340 18.7969H44V1563.2H2340V18.7969Z" fill="white"/>
</mask>
<g mask="url(#mask67_961_1023)">
<path d="M1375.4 725.298C1374.6 725.298 1373.8 724.898 1373.3 724.198C1365 711.298 1352.3 715.298 1338.8 719.598C1336.4 720.398 1334 721.098 1331.6 721.798C1330.3 722.198 1328.9 721.398 1328.5 720.098C1328.1 718.798 1328.9 717.398 1330.2 716.998C1332.5 716.398 1334.8 715.598 1337.2 714.898C1351.2 710.398 1367.1 705.398 1377.4 721.498C1378.1 722.698 1377.8 724.198 1376.6 724.998C1376.3 725.098 1375.9 725.298 1375.4 725.298Z" fill="#19130F"/>
</g>
<mask id="mask68_961_1023" style="mask-type:luminance" maskUnits="userSpaceOnUse" x="44" y="18" width="2296" height="1546">
<path d="M2340 18.7969H44V1563.2H2340V18.7969Z" fill="white"/>
</mask>
<g mask="url(#mask68_961_1023)">
<path d="M239.901 435.698C233.001 435.698 225.701 432.898 221.001 429.998C213.101 425.098 214.501 405.898 214.701 403.698C214.801 402.298 216.001 401.298 217.401 401.398C218.801 401.498 219.801 402.698 219.701 404.098C219.101 411.598 219.901 423.298 223.701 425.698C230.401 429.898 242.601 433.198 248.901 427.698C251.701 425.198 252.901 422.298 252.301 419.598C251.601 416.398 248.501 413.698 243.801 412.298C239.901 411.098 238.201 411.498 237.801 411.898C237.301 412.398 237.401 414.198 238.301 416.698C238.801 417.998 238.201 419.398 236.901 419.898C235.601 420.398 234.201 419.798 233.701 418.498C232.001 414.198 232.101 410.598 234.101 408.498C236.201 406.198 239.901 405.898 245.301 407.498C251.801 409.498 256.101 413.498 257.201 418.498C258.201 422.998 256.401 427.698 252.201 431.398C248.801 434.498 244.401 435.698 239.901 435.698Z" fill="#19130F"/>
</g>
<mask id="mask69_961_1023" style="mask-type:luminance" maskUnits="userSpaceOnUse" x="44" y="18" width="2296" height="1546">
<path d="M2340 18.7969H44V1563.2H2340V18.7969Z" fill="white"/>
</mask>
<g mask="url(#mask69_961_1023)">
<path d="M239.501 423.594C239.001 423.594 238.501 423.494 238.101 423.194C235.901 421.694 233.601 419.894 231.301 418.194C230.101 417.194 228.901 416.294 227.701 415.494C226.601 414.694 226.401 413.094 227.201 411.994C228.001 410.894 229.601 410.694 230.701 411.494C231.901 412.394 233.101 413.294 234.401 414.294C236.601 415.994 238.801 417.694 240.901 419.094C242.001 419.894 242.301 421.394 241.601 422.594C241.101 423.194 240.301 423.594 239.501 423.594Z" fill="#19130F"/>
</g>
<mask id="mask70_961_1023" style="mask-type:luminance" maskUnits="userSpaceOnUse" x="44" y="18" width="2296" height="1546">
<path d="M2340 18.7969H44V1563.2H2340V18.7969Z" fill="white"/>
</mask>
<g mask="url(#mask70_961_1023)">
<path d="M229.701 450.4C216.201 450.4 203.101 433.6 202.501 432.9C201.701 431.8 201.901 430.2 202.901 429.4C204.001 428.6 205.601 428.8 206.401 429.8C206.501 430 219.601 446.6 230.901 445.3C235.501 444.8 239.301 441.2 242.301 434.6C242.901 433.3 244.401 432.8 245.601 433.4C246.901 434 247.401 435.5 246.801 436.7C243.001 445 237.801 449.6 231.401 450.3C230.901 450.3 230.301 450.4 229.701 450.4Z" fill="#19130F"/>
</g>
<mask id="mask71_961_1023" style="mask-type:luminance" maskUnits="userSpaceOnUse" x="44" y="18" width="2296" height="1546">
<path d="M2340 18.7969H44V1563.2H2340V18.7969Z" fill="white"/>
</mask>
<g mask="url(#mask71_961_1023)">
<path d="M219.699 464.194C212.499 464.194 205.999 460.094 205.699 459.894C204.499 459.194 204.199 457.594 204.899 456.394C205.599 455.194 207.199 454.894 208.399 455.594C208.599 455.694 217.199 461.094 223.999 458.294C227.799 456.794 230.499 452.894 231.999 446.794C232.299 445.494 233.699 444.594 234.999 444.994C236.299 445.294 237.199 446.694 236.799 447.994C234.899 455.794 231.099 460.794 225.799 462.894C223.699 463.894 221.699 464.194 219.699 464.194Z" fill="#19130F"/>
</g>
<mask id="mask72_961_1023" style="mask-type:luminance" maskUnits="userSpaceOnUse" x="44" y="18" width="2296" height="1546">
<path d="M2340 18.7969H44V1563.2H2340V18.7969Z" fill="white"/>
</mask>
<g mask="url(#mask72_961_1023)">
<path d="M276.199 454.299C276.099 454.299 275.999 454.299 275.899 454.299C268.299 453.399 262.699 450.199 259.399 444.599C250.999 430.499 260.599 406.599 260.999 405.599C261.499 404.299 262.999 403.699 264.299 404.199C265.599 404.699 266.199 406.199 265.699 407.499C265.599 407.699 256.599 430.099 263.699 442.099C266.199 446.299 270.399 448.699 276.399 449.399C277.799 449.599 278.799 450.799 278.599 452.199C278.599 453.399 277.499 454.299 276.199 454.299Z" fill="#19130F"/>
</g>
<mask id="mask73_961_1023" style="mask-type:luminance" maskUnits="userSpaceOnUse" x="44" y="18" width="2296" height="1546">
<path d="M2340 18.7969H44V1563.2H2340V18.7969Z" fill="white"/>
</mask>
<g mask="url(#mask73_961_1023)">
<path d="M225.798 396.2C225.298 396.2 224.898 396.1 224.498 395.8C189.998 373.8 181.198 357.5 179.898 347.6C178.798 339.3 182.798 334.9 182.898 334.7C183.798 333.7 185.398 333.6 186.398 334.5C187.398 335.4 187.498 337 186.598 338C186.498 338.2 183.998 341.2 184.898 347.2C186.198 356 194.598 370.8 227.198 391.5C228.398 392.2 228.698 393.8 227.998 395C227.398 395.8 226.598 396.2 225.798 396.2Z" fill="#19130F"/>
</g>
<mask id="mask74_961_1023" style="mask-type:luminance" maskUnits="userSpaceOnUse" x="44" y="18" width="2296" height="1546">
<path d="M2340 18.7969H44V1563.2H2340V18.7969Z" fill="white"/>
</mask>
<g mask="url(#mask74_961_1023)">
<path d="M269.701 492.098C268.901 492.098 268.101 491.998 267.201 491.798C265.801 491.498 265.001 490.198 265.301 488.798C265.601 487.398 266.901 486.598 268.301 486.898C271.801 487.598 272.801 485.998 274.901 481.298C276.001 478.898 277.201 476.098 279.301 474.198C282.501 471.398 286.101 470.498 289.601 469.598C293.401 468.598 296.701 467.798 299.101 464.698C300.001 463.598 301.501 463.498 302.601 464.298C303.701 465.198 303.801 466.698 303.001 467.798C299.501 472.198 294.901 473.398 290.801 474.398C287.701 475.198 284.801 475.898 282.601 477.898C281.301 479.098 280.401 481.098 279.401 483.298C277.701 487.198 275.501 492.098 269.701 492.098Z" fill="#19130F"/>
</g>
<mask id="mask75_961_1023" style="mask-type:luminance" maskUnits="userSpaceOnUse" x="44" y="18" width="2296" height="1546">
<path d="M2340 18.7969H44V1563.2H2340V18.7969Z" fill="white"/>
</mask>
<g mask="url(#mask75_961_1023)">
<path d="M443.799 840.694C443.099 840.694 442.399 840.394 441.899 839.794C440.999 838.694 441.199 837.194 442.199 836.294C482.099 802.994 504.399 711.194 504.599 710.294C504.899 708.994 506.299 708.094 507.599 708.394C508.899 708.694 509.799 710.094 509.499 711.394C508.599 715.194 486.599 805.794 445.399 840.094C444.899 840.494 444.299 840.694 443.799 840.694Z" fill="#19130F"/>
</g>
<mask id="mask76_961_1023" style="mask-type:luminance" maskUnits="userSpaceOnUse" x="44" y="18" width="2296" height="1546">
<path d="M2340 18.7969H44V1563.2H2340V18.7969Z" fill="white"/>
</mask>
<g mask="url(#mask76_961_1023)">
<path d="M896.7 733.793C855.5 733.793 827.9 718.593 811.9 705.593C794 691.093 786.3 676.593 786 675.993C785.4 674.793 785.9 673.293 787.1 672.593C788.3 671.993 789.8 672.393 790.5 673.693C790.6 673.793 798.1 688.093 815.3 701.893C831.1 714.593 858.7 729.593 900.2 728.793C901.6 728.693 902.7 729.893 902.8 731.193C902.8 732.593 901.7 733.693 900.4 733.793C899 733.793 897.9 733.793 896.7 733.793Z" fill="#19130F"/>
</g>
<mask id="mask77_961_1023" style="mask-type:luminance" maskUnits="userSpaceOnUse" x="44" y="18" width="2296" height="1546">
<path d="M2340 18.7969H44V1563.2H2340V18.7969Z" fill="white"/>
</mask>
<g mask="url(#mask77_961_1023)">
<path d="M676.2 762.599C672.8 762.599 669.3 762.499 665.8 762.299C631.5 760.199 600.5 748.399 600.2 748.199C598.9 747.699 598.3 746.299 598.8 744.999C599.3 743.699 600.7 743.099 602 743.599C602.3 743.699 632.7 755.299 666.2 757.299C710.4 759.999 738.9 745.799 750.9 715.099C751.4 713.799 752.8 713.199 754.1 713.699C755.4 714.199 756 715.599 755.5 716.899C743.8 746.899 716.5 762.599 676.2 762.599Z" fill="#19130F"/>
</g>
<mask id="mask78_961_1023" style="mask-type:luminance" maskUnits="userSpaceOnUse" x="44" y="18" width="2296" height="1546">
<path d="M2340 18.7969H44V1563.2H2340V18.7969Z" fill="white"/>
</mask>
<g mask="url(#mask78_961_1023)">
<path d="M837 353.296C834.5 353.296 832.3 352.596 830.5 351.096C818.6 341.396 830.5 301.696 831.9 297.196C832.3 295.896 833.7 295.096 835 295.596C836.3 295.996 837.1 297.396 836.6 298.696C831.7 314.396 826.5 341.496 833.5 347.196C836.5 349.596 841.8 347.496 845.8 345.296C847 344.596 848.5 345.096 849.2 346.296C849.9 347.496 849.4 348.996 848.2 349.696C844.1 352.096 840.3 353.296 837 353.296Z" fill="#19130F"/>
</g>
<mask id="mask79_961_1023" style="mask-type:luminance" maskUnits="userSpaceOnUse" x="44" y="18" width="2296" height="1546">
<path d="M2340 18.7969H44V1563.2H2340V18.7969Z" fill="white"/>
</mask>
<g mask="url(#mask79_961_1023)">
<path d="M853.8 353.196C852.3 353.196 850.8 352.796 849.6 351.796C846.7 349.596 843.7 344.096 850.5 321.996C854 310.496 858.6 299.696 858.7 299.596C859.2 298.296 860.7 297.696 862 298.296C863.3 298.796 863.9 300.296 863.3 301.596C863.3 301.696 858.7 312.296 855.3 323.596C849.1 343.896 852.1 347.496 852.7 347.996C853.1 348.296 855.8 349.696 865.4 342.296C870.6 337.696 871.8 331.596 872.1 329.096C870.8 328.196 868.9 327.196 867.5 327.496C867.1 327.596 866.4 327.796 865.8 329.096C865.2 330.296 863.7 330.796 862.4 330.196C861.2 329.596 860.7 328.096 861.3 326.796C862.8 323.796 865 322.796 866.5 322.496C871.1 321.596 875.8 325.596 876.3 325.996C876.8 326.496 877.1 327.196 877.1 327.896C877.1 328.296 877 338.496 868.6 345.996L868.5 346.096C864.1 349.396 858.5 353.196 853.8 353.196Z" fill="#19130F"/>
</g>
<mask id="mask80_961_1023" style="mask-type:luminance" maskUnits="userSpaceOnUse" x="44" y="18" width="2296" height="1546">
<path d="M2340 18.7969H44V1563.2H2340V18.7969Z" fill="white"/>
</mask>
<g mask="url(#mask80_961_1023)">
<path d="M821.899 354.098C819.099 354.098 816.499 353.298 814.099 351.798C798.499 341.698 797.699 300.598 797.699 298.898C797.699 297.498 798.799 296.398 800.199 296.398C801.499 296.398 802.699 297.498 802.699 298.898C802.899 309.998 805.699 340.498 816.799 347.698C819.799 349.598 823.299 349.698 827.399 347.898C828.699 347.298 830.099 347.898 830.699 349.198C831.299 350.498 830.699 351.898 829.399 352.498C826.799 353.598 824.199 354.098 821.899 354.098Z" fill="#19130F"/>
</g>
<mask id="mask81_961_1023" style="mask-type:luminance" maskUnits="userSpaceOnUse" x="44" y="18" width="2296" height="1546">
<path d="M2340 18.7969H44V1563.2H2340V18.7969Z" fill="white"/>
</mask>
<g mask="url(#mask81_961_1023)">
<path d="M778.799 311.595C777.699 311.595 776.599 310.795 776.399 309.595C766.599 265.695 767.099 238.995 777.799 230.195C783.899 225.195 790.699 227.995 790.999 228.195C792.299 228.695 792.899 230.195 792.299 231.495C791.799 232.795 790.299 233.295 788.999 232.795C788.799 232.695 784.599 231.095 780.899 234.095C775.799 238.395 769.099 253.695 781.299 308.495C781.599 309.795 780.799 311.195 779.399 311.495C779.199 311.595 778.999 311.595 778.799 311.595Z" fill="#19130F"/>
</g>
<mask id="mask82_961_1023" style="mask-type:luminance" maskUnits="userSpaceOnUse" x="44" y="18" width="2296" height="1546">
<path d="M2340 18.7969H44V1563.2H2340V18.7969Z" fill="white"/>
</mask>
<g mask="url(#mask82_961_1023)">
<path d="M811.499 392.094C809.999 392.094 808.499 391.994 806.799 391.894C805.399 391.794 804.399 390.594 804.499 389.194C804.599 387.794 805.799 386.794 807.199 386.894C813.899 387.494 819.199 386.594 824.699 385.594C827.699 385.094 830.899 384.594 834.399 384.194C838.599 383.794 842.199 384.494 845.399 385.194C850.399 386.194 854.399 386.994 859.499 383.794C860.699 383.094 862.199 383.394 862.899 384.594C863.599 385.794 863.299 387.294 862.099 387.994C855.299 392.194 849.699 391.094 844.399 389.994C841.399 389.394 838.299 388.794 834.899 389.094C831.499 389.394 828.499 389.894 825.499 390.394C820.999 391.394 816.699 392.094 811.499 392.094Z" fill="#19130F"/>
</g>
<mask id="mask83_961_1023" style="mask-type:luminance" maskUnits="userSpaceOnUse" x="44" y="18" width="2296" height="1546">
<path d="M2340 18.7969H44V1563.2H2340V18.7969Z" fill="white"/>
</mask>
<g mask="url(#mask83_961_1023)">
<path d="M708.701 1633C707.501 1633 706.401 1632.1 706.201 1630.8L674.701 1377.8L594.1 1292.1C593.2 1291.1 593.201 1289.5 594.201 1288.6C595.201 1287.7 596.801 1287.7 597.701 1288.7L678.901 1375C679.301 1375.4 679.5 1375.9 679.6 1376.4L711.201 1630.2C711.401 1631.6 710.401 1632.8 709.001 1633C708.901 1633 708.801 1633 708.701 1633Z" fill="#19130F"/>
</g>
<mask id="mask84_961_1023" style="mask-type:luminance" maskUnits="userSpaceOnUse" x="44" y="18" width="2296" height="1546">
<path d="M2340 18.7969H44V1563.2H2340V18.7969Z" fill="white"/>
</mask>
<g mask="url(#mask84_961_1023)">
<path d="M831.799 1330.4C806.899 1330 782.299 1315.7 760.699 1289C744.499 1269 735.799 1249.4 735.499 1248.6C734.899 1247.3 735.499 1245.9 736.799 1245.3C738.099 1244.7 739.499 1245.3 740.099 1246.6C740.399 1247.4 775.199 1324.6 831.899 1325.5C833.299 1325.5 834.399 1326.7 834.399 1328C834.299 1329.3 833.199 1330.4 831.799 1330.4Z" fill="#19130F"/>
</g>
<mask id="mask85_961_1023" style="mask-type:luminance" maskUnits="userSpaceOnUse" x="44" y="18" width="2296" height="1546">
<path d="M2340 18.7969H44V1563.2H2340V18.7969Z" fill="white"/>
</mask>
<g mask="url(#mask85_961_1023)">
<path d="M514.701 898.796C514.201 898.796 513.701 898.596 513.201 898.296C512.101 897.496 511.901 895.896 512.701 894.796L602.401 775.096C603.201 773.996 604.801 773.796 605.901 774.596C607.001 775.396 607.201 776.996 606.401 778.096L516.701 897.796C516.201 898.396 515.501 898.796 514.701 898.796Z" fill="#19130F"/>
</g>
<mask id="mask86_961_1023" style="mask-type:luminance" maskUnits="userSpaceOnUse" x="44" y="18" width="2296" height="1546">
<path d="M2340 18.7969H44V1563.2H2340V18.7969Z" fill="white"/>
</mask>
<g mask="url(#mask86_961_1023)">
<path d="M862.601 936.4C861.901 936.4 861.101 936.1 860.601 935.5L735.801 778.2C734.901 777.1 735.101 775.5 736.201 774.7C737.301 773.8 738.901 774 739.701 775.1L864.501 932.4C865.401 933.5 865.201 935.1 864.101 935.9C863.701 936.2 863.101 936.4 862.601 936.4Z" fill="#19130F"/>
</g>
<mask id="mask87_961_1023" style="mask-type:luminance" maskUnits="userSpaceOnUse" x="44" y="18" width="2296" height="1546">
<path d="M2340 18.7969H44V1563.2H2340V18.7969Z" fill="white"/>
</mask>
<g mask="url(#mask87_961_1023)">
<path d="M1783.1 414.199C1782.2 414.199 1781.3 413.699 1780.9 412.899C1774.6 400.799 1764.1 404.699 1749.9 411.499L1748.3 412.299C1747.1 412.899 1745.6 412.399 1745 411.099C1744.4 409.899 1744.9 408.399 1746.2 407.799L1747.8 406.999C1759.9 401.199 1776.4 393.199 1785.4 410.599C1786 411.799 1785.6 413.299 1784.3 413.999C1783.9 414.099 1783.5 414.199 1783.1 414.199Z" fill="#19130F"/>
</g>
<mask id="mask88_961_1023" style="mask-type:luminance" maskUnits="userSpaceOnUse" x="44" y="18" width="2296" height="1546">
<path d="M2340 18.7969H44V1563.2H2340V18.7969Z" fill="white"/>
</mask>
<g mask="url(#mask88_961_1023)">
<path d="M1705.3 405.598C1704.7 405.598 1704 405.398 1703.6 404.898C1690.6 392.398 1684.6 391.198 1682.2 391.598C1681.4 391.698 1680.3 392.098 1679.4 393.998C1678.8 395.198 1677.3 395.698 1676 395.098C1674.8 394.498 1674.3 392.998 1674.9 391.698C1676.7 388.098 1679.4 386.998 1681.4 386.598C1687.4 385.598 1695.8 390.398 1707.1 401.298C1708.1 402.298 1708.1 403.798 1707.2 404.798C1706.6 405.298 1706 405.598 1705.3 405.598Z" fill="#19130F"/>
</g>
<mask id="mask89_961_1023" style="mask-type:luminance" maskUnits="userSpaceOnUse" x="44" y="18" width="2296" height="1546">
<path d="M2340 18.7969H44V1563.2H2340V18.7969Z" fill="white"/>
</mask>
<g mask="url(#mask89_961_1023)">
<path d="M1284.8 1239.5C1284.7 1239.5 1284.6 1239.5 1284.5 1239.5C1262.9 1236.6 1241.6 1206 1230.9 1188C1215 1161.3 1201.1 1127.7 1194.6 1100.2C1173 1019.5 1092 967.399 1061.6 947.799C1056.3 944.399 1052.8 942.199 1051.3 940.799C1047.6 937.599 903.5 798.999 897.4 793.099C896.4 792.099 896.4 790.599 897.3 789.599C898.3 788.599 899.8 788.599 900.8 789.499C902.3 790.899 1051 933.799 1054.6 936.999C1055.9 938.099 1059.6 940.499 1064.3 943.599C1095.2 963.499 1177.4 1016.3 1199.5 1099C1211.6 1150.6 1252.8 1230.1 1285.2 1234.5C1286.6 1234.7 1287.5 1235.9 1287.3 1237.3C1287.1 1238.6 1286 1239.5 1284.8 1239.5Z" fill="#19130F"/>
</g>
<mask id="mask90_961_1023" style="mask-type:luminance" maskUnits="userSpaceOnUse" x="44" y="18" width="2296" height="1546">
<path d="M2340 18.7969H44V1563.2H2340V18.7969Z" fill="white"/>
</mask>
<g mask="url(#mask90_961_1023)">
<path d="M999.899 442.896C999.599 442.896 999.299 442.796 998.999 442.696C997.699 442.196 997.099 440.796 997.499 439.496C1000.4 431.796 1007.4 428.196 1013.6 424.996L1014.6 424.496C1015.8 423.896 1017.3 424.396 1018 425.596C1018.6 426.796 1018.1 428.296 1016.9 428.996L1015.9 429.496C1010 432.496 1004.4 435.396 1002.2 441.296C1001.9 442.296 1000.9 442.896 999.899 442.896Z" fill="#19130F"/>
</g>
<mask id="mask91_961_1023" style="mask-type:luminance" maskUnits="userSpaceOnUse" x="44" y="18" width="2296" height="1546">
<path d="M2340 18.7969H44V1563.2H2340V18.7969Z" fill="white"/>
</mask>
<g mask="url(#mask91_961_1023)">
<path d="M1019.8 453.199C1019.2 453.199 1018.7 452.999 1018.2 452.599C1017.1 451.699 1017 450.099 1017.8 449.099C1022.9 442.899 1031.3 440.999 1037.4 439.699C1038.8 439.399 1040.1 440.299 1040.4 441.599C1040.7 442.899 1039.8 444.299 1038.5 444.599C1032.8 445.899 1025.7 447.399 1021.7 452.299C1021.3 452.899 1020.6 453.199 1019.8 453.199Z" fill="#19130F"/>
</g>
<mask id="mask92_961_1023" style="mask-type:luminance" maskUnits="userSpaceOnUse" x="44" y="18" width="2296" height="1546">
<path d="M2340 18.7969H44V1563.2H2340V18.7969Z" fill="white"/>
</mask>
<g mask="url(#mask92_961_1023)">
<path d="M1033.5 466.897C1033.3 466.897 1033.1 466.897 1033 466.797C1031.7 466.497 1030.8 465.197 1031.1 463.797C1032.8 455.997 1043.1 453.497 1048.3 453.297C1049.7 453.297 1050.8 454.297 1050.9 455.697C1051 457.097 1049.9 458.197 1048.5 458.297C1043.9 458.497 1036.9 460.697 1036 464.897C1035.7 466.097 1034.7 466.897 1033.5 466.897Z" fill="#19130F"/>
</g>
<mask id="mask93_961_1023" style="mask-type:luminance" maskUnits="userSpaceOnUse" x="44" y="18" width="2296" height="1546">
<path d="M2340 18.7969H44V1563.2H2340V18.7969Z" fill="white"/>
</mask>
<g mask="url(#mask93_961_1023)">
<path d="M1075.7 709C1074.5 709 1073.4 708.1 1073.2 706.8L1047.6 520.5C1047.5 520 1047.6 519.4 1047.9 519L1048.2 518.5C1052.5 510.5 1056.7 502.9 1052.4 495C1051.6 493.5 1050.2 491.9 1048.7 490.2C1044.8 485.7 1039.5 479.5 1045.3 472.4C1046.2 471.3 1047.8 471.2 1048.8 472.1C1049.9 473 1050 474.6 1049.1 475.6C1046.2 479.1 1047.9 481.7 1052.4 486.9C1054 488.7 1055.6 490.6 1056.7 492.6C1062.2 502.7 1057.1 512.2 1052.6 520.6L1078.1 706.1C1078.3 707.5 1077.3 708.7 1076 708.9C1075.9 709 1075.8 709 1075.7 709Z" fill="#19130F"/>
</g>
<mask id="mask94_961_1023" style="mask-type:luminance" maskUnits="userSpaceOnUse" x="44" y="18" width="2296" height="1546">
<path d="M2340 18.7969H44V1563.2H2340V18.7969Z" fill="white"/>
</mask>
<g mask="url(#mask94_961_1023)">
<path d="M1191.9 816.697C1191.8 816.697 1191.8 816.697 1191.7 816.697C1190.3 816.597 1189.3 815.397 1189.4 813.997C1205.8 591.197 1230.3 507.697 1230.5 506.897C1230.9 505.597 1232.3 504.797 1233.6 505.197C1234.9 505.597 1235.7 506.997 1235.3 508.297C1235.1 509.097 1210.7 592.197 1194.4 814.297C1194.3 815.697 1193.2 816.697 1191.9 816.697Z" fill="#19130F"/>
</g>
<mask id="mask95_961_1023" style="mask-type:luminance" maskUnits="userSpaceOnUse" x="44" y="18" width="2296" height="1546">
<path d="M2340 18.7969H44V1563.2H2340V18.7969Z" fill="white"/>
</mask>
<g mask="url(#mask95_961_1023)">
<path d="M1322.4 604.8C1322.3 604.8 1322.1 604.8 1322 604.8C1320.6 604.6 1319.7 603.3 1320 601.9C1335.2 516.9 1328.3 502.2 1325.8 499.7C1325.5 499.4 1325.2 499.3 1325.1 499.3C1323.9 499.8 1322.5 499.2 1321.9 498.1C1321.3 496.9 1321.8 495.4 1323.1 494.8C1324.3 494.2 1326.5 494 1328.6 495.6C1337.7 502.5 1336.5 538.6 1325 602.9C1324.7 603.9 1323.6 604.8 1322.4 604.8Z" fill="#19130F"/>
</g>
<mask id="mask96_961_1023" style="mask-type:luminance" maskUnits="userSpaceOnUse" x="44" y="18" width="2296" height="1546">
<path d="M2340 18.7969H44V1563.2H2340V18.7969Z" fill="white"/>
</mask>
<g mask="url(#mask96_961_1023)">
<path d="M1097.3 758.595C1095.9 758.595 1094.8 757.495 1094.8 756.095C1095.3 706.195 1072.6 686.395 1072.3 686.195C1071.2 685.295 1071.1 683.695 1072 682.695C1072.9 681.695 1074.5 681.495 1075.5 682.395C1076.5 683.195 1100.3 703.695 1099.8 756.095C1099.8 757.495 1098.7 758.595 1097.3 758.595Z" fill="#19130F"/>
</g>
<mask id="mask97_961_1023" style="mask-type:luminance" maskUnits="userSpaceOnUse" x="44" y="18" width="2296" height="1546">
<path d="M2340 18.7969H44V1563.2H2340V18.7969Z" fill="white"/>
</mask>
<g mask="url(#mask97_961_1023)">
<path d="M1340.2 453.599C1328.3 453.599 1319.7 449.799 1319.1 449.499C1317.8 448.899 1317.3 447.499 1317.9 446.199C1318.5 444.899 1319.9 444.399 1321.2 444.999C1321.5 445.099 1343.4 454.699 1364.4 441.999C1387.8 427.899 1401.4 392.999 1404.8 338.299C1404.9 336.899 1406.1 335.899 1407.5 335.999C1408.9 336.099 1409.9 337.299 1409.8 338.699C1406.2 395.199 1391.8 431.399 1366.9 446.399C1357.5 451.899 1348.2 453.599 1340.2 453.599Z" fill="#19130F"/>
</g>
<mask id="mask98_961_1023" style="mask-type:luminance" maskUnits="userSpaceOnUse" x="44" y="18" width="2296" height="1546">
<path d="M2340 18.7969H44V1563.2H2340V18.7969Z" fill="white"/>
</mask>
<g mask="url(#mask98_961_1023)">
<path d="M1259.2 675.996C1257.8 675.996 1256.7 674.796 1256.7 673.496C1257.3 629.396 1296.9 618.796 1297.3 618.696C1298.6 618.396 1300 619.196 1300.3 620.496C1300.6 621.796 1299.8 623.196 1298.5 623.496C1297 623.896 1262.2 633.296 1261.6 673.496C1261.6 674.896 1260.5 675.996 1259.2 675.996Z" fill="#19130F"/>
</g>
<mask id="mask99_961_1023" style="mask-type:luminance" maskUnits="userSpaceOnUse" x="44" y="18" width="2296" height="1546">
<path d="M2340 18.7969H44V1563.2H2340V18.7969Z" fill="white"/>
</mask>
<g mask="url(#mask99_961_1023)">
<path d="M1264.3 912.995C1263.8 912.995 1263.3 912.795 1262.8 912.495L1126.7 812.695H1123C1121.6 812.695 1120.5 811.595 1120.5 810.195C1120.5 808.795 1121.6 807.695 1123 807.695H1127.6C1128.1 807.695 1128.6 807.895 1129.1 808.195L1265.9 908.495C1267 909.295 1267.3 910.895 1266.4 911.995C1265.8 912.695 1265.1 912.995 1264.3 912.995Z" fill="#19130F"/>
</g>
<mask id="mask100_961_1023" style="mask-type:luminance" maskUnits="userSpaceOnUse" x="44" y="18" width="2296" height="1546">
<path d="M2340 18.7969H44V1563.2H2340V18.7969Z" fill="white"/>
</mask>
<g mask="url(#mask100_961_1023)">
<path d="M1407.4 913.096C1394.8 913.096 1384.7 908.996 1384.2 908.796C1382.9 908.296 1382.3 906.796 1382.8 905.496C1383.3 904.196 1384.8 903.596 1386.1 904.096C1386.4 904.196 1402.2 910.496 1418.2 906.796C1449 899.596 1552.2 870.196 1557.5 868.696C1570.3 862.596 1595.4 850.296 1600.2 846.796C1606.4 842.296 1839.1 663.496 1841.5 661.596C1842.6 660.796 1844.2 660.996 1845 662.096C1845.8 663.196 1845.6 664.796 1844.5 665.596C1834.9 672.996 1609.4 846.296 1603.1 850.796C1596.7 855.396 1560.9 872.496 1559.4 873.296C1559.3 873.396 1559.1 873.396 1559 873.396C1557.9 873.696 1450.9 904.296 1419.3 911.596C1415.2 912.796 1411.2 913.096 1407.4 913.096Z" fill="#19130F"/>
</g>
<mask id="mask101_961_1023" style="mask-type:luminance" maskUnits="userSpaceOnUse" x="44" y="18" width="2296" height="1546">
<path d="M2340 18.7969H44V1563.2H2340V18.7969Z" fill="white"/>
</mask>
<g mask="url(#mask101_961_1023)">
<path d="M1024.4 912.496C1023.7 912.496 1023.1 912.196 1022.6 911.696C1021.6 910.696 1021.7 909.096 1022.7 908.196L1122.4 811.296C1123.4 810.296 1125 810.396 1125.9 811.396C1126.9 812.396 1126.8 813.996 1125.8 814.896L1026.1 911.796C1025.7 912.196 1025 912.496 1024.4 912.496Z" fill="#19130F"/>
</g>
<mask id="mask102_961_1023" style="mask-type:luminance" maskUnits="userSpaceOnUse" x="44" y="18" width="2296" height="1546">
<path d="M2340 18.7969H44V1563.2H2340V18.7969Z" fill="white"/>
</mask>
<g mask="url(#mask102_961_1023)">
<path d="M1585.7 1020.7C1584.8 1020.7 1583.9 1020.2 1583.5 1019.3C1569.8 992.396 1556.4 876.396 1555.9 871.396C1555.7 869.996 1556.7 868.796 1558.1 868.596C1559.5 868.396 1560.7 869.396 1560.9 870.796C1561 871.996 1574.7 990.896 1588 1017C1588.6 1018.2 1588.1 1019.7 1586.9 1020.4C1586.4 1020.6 1586 1020.7 1585.7 1020.7Z" fill="#19130F"/>
</g>
<mask id="mask103_961_1023" style="mask-type:luminance" maskUnits="userSpaceOnUse" x="44" y="18" width="2296" height="1546">
<path d="M2340 18.7969H44V1563.2H2340V18.7969Z" fill="white"/>
</mask>
<g mask="url(#mask103_961_1023)">
<path d="M1297.3 1020.8C1292.5 1020.8 1287.8 1020.4 1283.2 1019.5C1271.7 1017.6 1262.7 1011.7 1256.5 1002.1C1236.3 970.696 1252.6 909.596 1253.4 906.996C1253.8 905.696 1255.1 904.896 1256.5 905.196C1257.8 905.596 1258.6 906.896 1258.3 908.296C1258.1 908.896 1241.9 969.796 1260.8 999.396C1266.2 1007.8 1274.1 1012.9 1284.2 1014.6C1305.4 1018.6 1328.7 1012.7 1350 998.096C1377.9 978.896 1398.2 947.096 1404.4 912.896C1404.6 911.496 1405.9 910.596 1407.3 910.896C1408.7 911.096 1409.6 912.396 1409.3 913.796C1402.8 949.796 1382.2 981.996 1352.8 1002.2C1335 1014.4 1315.7 1020.8 1297.3 1020.8Z" fill="#19130F"/>
</g>
<mask id="mask104_961_1023" style="mask-type:luminance" maskUnits="userSpaceOnUse" x="44" y="18" width="2296" height="1546">
<path d="M2340 18.7969H44V1563.2H2340V18.7969Z" fill="white"/>
</mask>
<g mask="url(#mask104_961_1023)">
<path d="M1530.4 1467.4C1494.8 1467.1 1469.5 1450.5 1454.5 1436.6C1438.3 1421.6 1430.5 1406.8 1430.2 1406.2C1429.6 1405 1430 1403.5 1431.3 1402.8C1432.5 1402.2 1434 1402.6 1434.7 1403.9C1434.8 1404 1442.5 1418.6 1458.1 1433C1472.4 1446.2 1496.7 1462.1 1530.5 1462.3C1531.9 1462.3 1533 1463.4 1533 1464.8C1532.9 1466.3 1531.8 1467.4 1530.4 1467.4Z" fill="#19130F"/>
</g>
<mask id="mask105_961_1023" style="mask-type:luminance" maskUnits="userSpaceOnUse" x="44" y="18" width="2296" height="1546">
<path d="M2340 18.7969H44V1563.2H2340V18.7969Z" fill="white"/>
</mask>
<g mask="url(#mask105_961_1023)">
<path d="M1837.5 1602.5C1836.2 1602.5 1835.1 1601.5 1835 1600.2L1782.1 1070.4L1736.4 1009.4C1735.6 1008.3 1735.8 1006.7 1736.9 1005.9C1738 1005.1 1739.6 1005.3 1740.4 1006.4L1786.6 1067.9C1786.9 1068.3 1787 1068.7 1787.1 1069.2L1840.1 1599.7C1840.2 1601.1 1839.2 1602.3 1837.9 1602.4C1837.7 1602.5 1837.6 1602.5 1837.5 1602.5Z" fill="#19130F"/>
</g>
<mask id="mask106_961_1023" style="mask-type:luminance" maskUnits="userSpaceOnUse" x="44" y="18" width="2296" height="1546">
<path d="M2340 18.7969H44V1563.2H2340V18.7969Z" fill="white"/>
</mask>
<g mask="url(#mask106_961_1023)">
<path d="M1922.1 1028.09C1886.1 1028.09 1860.9 1010.69 1846.1 995.995C1829.9 979.995 1822.5 964.095 1822.2 963.395C1821.6 962.095 1822.2 960.695 1823.4 960.095C1824.7 959.495 1826.1 960.095 1826.7 961.295C1826.8 961.495 1834.2 977.195 1849.8 992.495C1870.6 1012.99 1895.2 1023.29 1923 1023.09C1924.4 1023.09 1925.5 1024.19 1925.5 1025.59C1925.5 1026.99 1924.4 1028.09 1923 1028.09C1922.7 1028.09 1922.4 1028.09 1922.1 1028.09Z" fill="#19130F"/>
</g>
<mask id="mask107_961_1023" style="mask-type:luminance" maskUnits="userSpaceOnUse" x="44" y="18" width="2296" height="1546">
<path d="M2340 18.7969H44V1563.2H2340V18.7969Z" fill="white"/>
</mask>
<g mask="url(#mask107_961_1023)">
<path d="M1589.1 799.1C1587.8 799.1 1586.7 798.1 1586.6 796.7C1583.2 740.3 1563.1 692.6 1562.9 692.1C1562.4 690.8 1562.9 689.4 1564.2 688.8C1565.5 688.3 1566.9 688.8 1567.5 690.1C1567.7 690.6 1588.2 739 1591.6 796.3C1591.7 797.7 1590.6 798.9 1589.3 798.9C1589.2 799.1 1589.1 799.1 1589.1 799.1Z" fill="#19130F"/>
</g>
<mask id="mask108_961_1023" style="mask-type:luminance" maskUnits="userSpaceOnUse" x="44" y="18" width="2296" height="1546">
<path d="M2340 18.7969H44V1563.2H2340V18.7969Z" fill="white"/>
</mask>
<g mask="url(#mask108_961_1023)">
<path d="M1492.8 498.197C1492.5 498.197 1492.2 498.097 1491.9 497.997C1490.6 497.497 1490 496.097 1490.5 494.797C1493.4 487.197 1500.5 484.797 1505.7 483.097C1507 482.697 1508.4 483.397 1508.9 484.697C1509.3 485.997 1508.6 487.397 1507.3 487.897C1501.4 489.897 1497.1 491.597 1495.2 496.697C1494.7 497.597 1493.8 498.197 1492.8 498.197Z" fill="#19130F"/>
</g>
<mask id="mask109_961_1023" style="mask-type:luminance" maskUnits="userSpaceOnUse" x="44" y="18" width="2296" height="1546">
<path d="M2340 18.7969H44V1563.2H2340V18.7969Z" fill="white"/>
</mask>
<g mask="url(#mask109_961_1023)">
<path d="M1505.3 502.193C1504.7 502.193 1504.1 501.993 1503.6 501.493C1502.6 500.593 1502.5 498.993 1503.5 497.993C1508.3 492.793 1514 490.593 1520.5 491.493C1521.9 491.693 1522.8 492.993 1522.6 494.293C1522.4 495.693 1521.1 496.593 1519.8 496.393C1515 495.693 1510.9 497.293 1507.2 501.293C1506.7 501.893 1506 502.193 1505.3 502.193Z" fill="#19130F"/>
</g>
<mask id="mask110_961_1023" style="mask-type:luminance" maskUnits="userSpaceOnUse" x="44" y="18" width="2296" height="1546">
<path d="M2340 18.7969H44V1563.2H2340V18.7969Z" fill="white"/>
</mask>
<g mask="url(#mask110_961_1023)">
<path d="M1515.6 510.196C1514.8 510.196 1514 509.796 1513.5 509.096C1512.7 507.996 1513 506.396 1514.2 505.596C1519.1 502.296 1524.7 500.796 1530.6 501.196C1532 501.296 1533 502.496 1532.9 503.896C1532.8 505.296 1531.6 506.296 1530.2 506.196C1525.4 505.896 1521 507.096 1517 509.796C1516.5 509.996 1516.1 510.196 1515.6 510.196Z" fill="#19130F"/>
</g>
<mask id="mask111_961_1023" style="mask-type:luminance" maskUnits="userSpaceOnUse" x="44" y="18" width="2296" height="1546">
<path d="M2340 18.7969H44V1563.2H2340V18.7969Z" fill="white"/>
</mask>
<g mask="url(#mask111_961_1023)">
<path d="M1532.1 550.6C1531.5 550.6 1530.9 550.4 1530.4 549.9C1523.8 543.9 1528.7 532.2 1531.4 527C1530.1 527 1528.4 527.3 1527.6 527.4C1526.8 527.5 1526.1 527.6 1525.5 527.7C1524.1 527.9 1522.9 526.9 1522.7 525.5C1522.5 524.1 1523.5 522.9 1524.9 522.7C1525.5 522.6 1526.1 522.5 1526.8 522.4C1530.2 521.9 1534.8 521.1 1537 524.3C1537.5 525.1 1537.6 526.2 1537.1 527C1534.9 530.7 1529.5 542.1 1533.8 546.1C1534.8 547 1534.9 548.6 1534 549.6C1533.5 550.4 1532.8 550.6 1532.1 550.6Z" fill="#19130F"/>
</g>
<mask id="mask112_961_1023" style="mask-type:luminance" maskUnits="userSpaceOnUse" x="44" y="18" width="2296" height="1546">
<path d="M2340 18.7969H44V1563.2H2340V18.7969Z" fill="white"/>
</mask>
<g mask="url(#mask112_961_1023)">
<path d="M1859.7 113.597C1859.4 113.597 1859 113.497 1858.7 113.397C1857.4 112.797 1856.9 111.297 1857.5 110.097C1859.5 105.697 1858.1 97.8973 1857.4 95.2973C1857 93.9973 1857.8 92.5973 1859.1 92.1973C1860.4 91.7973 1861.8 92.5973 1862.2 93.8973C1862.3 94.3973 1865.3 105.097 1862.1 112.097C1861.6 112.997 1860.7 113.597 1859.7 113.597Z" fill="#19130F"/>
</g>
<mask id="mask113_961_1023" style="mask-type:luminance" maskUnits="userSpaceOnUse" x="44" y="18" width="2296" height="1546">
<path d="M2340 18.7969H44V1563.2H2340V18.7969Z" fill="white"/>
</mask>
<g mask="url(#mask113_961_1023)">
<path d="M1878 77.6973C1877.1 77.6973 1876.2 77.1974 1875.8 76.2974C1873 70.5974 1867.2 69.0973 1867.2 69.0973C1865.9 68.7973 1865.1 67.3973 1865.4 66.0973C1865.7 64.7973 1867.1 63.9974 1868.4 64.2974C1868.7 64.3974 1876.4 66.3973 1880.3 74.1973C1880.9 75.3973 1880.4 76.8973 1879.2 77.5973C1878.7 77.5973 1878.4 77.6973 1878 77.6973Z" fill="#19130F"/>
</g>
<mask id="mask114_961_1023" style="mask-type:luminance" maskUnits="userSpaceOnUse" x="44" y="18" width="2296" height="1546">
<path d="M2340 18.7969H44V1563.2H2340V18.7969Z" fill="white"/>
</mask>
<g mask="url(#mask114_961_1023)">
<path d="M1897.4 71.3992C1896.6 71.3992 1895.8 70.9992 1895.3 70.2992C1892.6 66.3992 1887 62.0992 1883.2 62.2992C1881.8 62.3992 1880.7 61.2992 1880.6 59.8992C1880.5 58.4992 1881.6 57.3992 1883 57.2992C1889.7 56.9992 1896.6 63.3992 1899.4 67.4992C1900.2 68.5992 1899.9 70.1992 1898.7 70.9992C1898.3 71.2992 1897.8 71.3992 1897.4 71.3992Z" fill="#19130F"/>
</g>
<mask id="mask115_961_1023" style="mask-type:luminance" maskUnits="userSpaceOnUse" x="44" y="18" width="2296" height="1546">
<path d="M2340 18.7969H44V1563.2H2340V18.7969Z" fill="white"/>
</mask>
<g mask="url(#mask115_961_1023)">
<path d="M1916.2 69.0982C1915.2 69.0982 1914.3 68.4982 1913.9 67.5982C1912.5 64.4982 1908 59.6982 1905.6 59.3982C1904.2 59.1982 1903.3 57.9982 1903.4 56.5982C1903.6 55.1982 1904.8 54.2982 1906.2 54.3982C1911.3 54.9982 1916.9 61.9982 1918.5 65.5982C1919 66.8982 1918.5 68.2982 1917.2 68.8982C1916.8 69.0982 1916.5 69.0982 1916.2 69.0982Z" fill="#19130F"/>
</g>
<mask id="mask116_961_1023" style="mask-type:luminance" maskUnits="userSpaceOnUse" x="44" y="18" width="2296" height="1546">
<path d="M2340 18.7969H44V1563.2H2340V18.7969Z" fill="white"/>
</mask>
<g mask="url(#mask116_961_1023)">
<path d="M1829.5 565.4C1829.3 565.4 1829.1 565.4 1829 565.3C1827.7 565 1826.8 563.7 1827.1 562.3C1827.2 561.7 1840.8 501.2 1843 481.7V481.6C1863.6 351.2 1868.9 170 1868.6 159.6C1861.3 144.9 1857.4 130.6 1857.3 130C1856.9 128.7 1857.7 127.3 1859.1 126.9C1860.4 126.5 1861.8 127.3 1862.2 128.7C1862.2 128.8 1866.2 143.2 1873.3 157.5C1873.9 158.2 1873.8 159.3 1873.6 167.6C1873.5 173.8 1873.2 182.1 1872.9 191C1872.3 208.4 1871.1 236.4 1869 270.8C1865.5 328.9 1859 412.7 1848 482.3C1845.7 502.2 1832.6 560.9 1832 563.4C1831.7 564.7 1830.7 565.4 1829.5 565.4ZM1868.9 160C1869 160.2 1869.1 160.4 1869.4 160.7C1869.2 160.5 1869 160.3 1868.9 160C1868.9 160.1 1868.9 160.1 1868.9 160Z" fill="#19130F"/>
</g>
<mask id="mask117_961_1023" style="mask-type:luminance" maskUnits="userSpaceOnUse" x="44" y="18" width="2296" height="1546">
<path d="M2340 18.7969H44V1563.2H2340V18.7969Z" fill="white"/>
</mask>
<g mask="url(#mask117_961_1023)">
<path d="M1642.4 815.498C1641.4 815.498 1640.4 814.898 1640 813.798C1639.6 812.698 1631 787.898 1628.4 777.698C1628.4 777.498 1628.3 777.298 1628.3 777.198C1627 728.398 1675.3 636.298 1677.3 632.398C1677.9 631.198 1679.5 630.698 1680.7 631.398C1681.9 631.998 1682.4 633.598 1681.7 634.798C1681.2 635.698 1632.2 729.298 1633.3 776.898C1635.9 787.098 1644.6 812.098 1644.7 812.298C1645.2 813.598 1644.5 814.998 1643.2 815.498C1643 815.398 1642.7 815.498 1642.4 815.498Z" fill="#19130F"/>
</g>
<mask id="mask118_961_1023" style="mask-type:luminance" maskUnits="userSpaceOnUse" x="44" y="18" width="2296" height="1546">
<path d="M2340 18.7969H44V1563.2H2340V18.7969Z" fill="white"/>
</mask>
<g mask="url(#mask118_961_1023)">
<path d="M1787.3 379.596C1786.6 379.596 1785.9 379.296 1785.4 378.696C1765.1 353.896 1709.2 354.796 1698.2 355.196C1697.9 355.196 1697.7 355.196 1697.6 355.196C1696.3 355.196 1695.3 354.296 1695.1 352.996C1694.2 345.696 1695.6 340.196 1699.3 336.796C1704.8 331.696 1713.1 333.496 1713.5 333.496C1714.8 333.796 1715.7 335.096 1715.4 336.496C1715.1 337.796 1713.8 338.696 1712.4 338.396C1712.3 338.396 1706.2 337.196 1702.6 340.496C1700.5 342.396 1699.6 345.596 1699.8 350.096C1717.9 349.596 1768.7 350.396 1789.2 375.496C1790.1 376.596 1789.9 378.096 1788.8 378.996C1788.4 379.396 1787.9 379.596 1787.3 379.596Z" fill="#19130F"/>
</g>
<mask id="mask119_961_1023" style="mask-type:luminance" maskUnits="userSpaceOnUse" x="44" y="18" width="2296" height="1546">
<path d="M2340 18.7969H44V1563.2H2340V18.7969Z" fill="white"/>
</mask>
<g mask="url(#mask119_961_1023)">
<path d="M590.301 647.095C590.301 647.095 573.301 651.395 570.701 653.695C570.301 653.495 569.601 650.395 569.101 647.395C568.601 644.595 568.301 641.895 568.301 641.895C568.301 641.895 579.801 635.795 589.801 639.195C589.801 639.395 589.901 641.395 590.101 643.295C590.101 645.195 590.301 647.095 590.301 647.095Z" fill="#FEEADA"/>
<path d="M590.001 643.295C582.801 641.695 573.101 645.595 569.101 647.395C568.601 644.595 568.301 641.895 568.301 641.895C568.301 641.895 579.801 635.795 589.801 639.195C589.701 639.395 589.901 641.295 590.001 643.295Z" fill="#E2202D"/>
</g>
<mask id="mask120_961_1023" style="mask-type:luminance" maskUnits="userSpaceOnUse" x="44" y="18" width="2296" height="1546">
<path d="M2340 18.7969H44V1563.2H2340V18.7969Z" fill="white"/>
</mask>
<g mask="url(#mask120_961_1023)">
<path d="M1266.3 729.697C1266.3 729.697 1243.7 726.497 1239.5 727.997C1239.1 727.497 1239.9 723.497 1240.7 719.697C1241.5 716.097 1242.4 712.597 1242.4 712.597C1242.4 712.597 1259.2 710.897 1269.6 719.897C1269.5 720.197 1268.7 722.597 1267.9 724.997C1267 727.297 1266.3 729.697 1266.3 729.697Z" fill="#FEEADA"/>
<path d="M1267.8 724.895C1260 719.395 1246.3 719.395 1240.6 719.595C1241.4 715.995 1242.3 712.495 1242.3 712.495C1242.3 712.495 1259.1 710.795 1269.5 719.795C1269.4 720.095 1268.6 722.495 1267.8 724.895Z" fill="#E2202D"/>
</g>
<mask id="mask121_961_1023" style="mask-type:luminance" maskUnits="userSpaceOnUse" x="44" y="18" width="2296" height="1546">
<path d="M2340 18.7969H44V1563.2H2340V18.7969Z" fill="white"/>
</mask>
<g mask="url(#mask121_961_1023)">
<path d="M1505.5 547.595C1505.5 547.595 1484.1 539.595 1479.6 540.195C1479.3 539.595 1480.9 535.895 1482.6 532.295C1484.2 528.895 1485.8 525.695 1485.8 525.695C1485.8 525.695 1502.5 527.595 1510.8 538.595C1510.6 538.795 1509.3 540.995 1508.1 543.195C1506.8 545.495 1505.5 547.595 1505.5 547.595Z" fill="#FEEADA"/>
<path d="M1508.1 543.295C1501.7 536.295 1488.3 533.295 1482.7 532.295C1484.3 528.895 1485.9 525.695 1485.9 525.695C1485.9 525.695 1502.6 527.595 1510.9 538.595C1510.7 538.895 1509.3 541.095 1508.1 543.295Z" fill="#E2202D"/>
</g>
<mask id="mask122_961_1023" style="mask-type:luminance" maskUnits="userSpaceOnUse" x="44" y="18" width="2296" height="1546">
<path d="M2340 18.7969H44V1563.2H2340V18.7969Z" fill="white"/>
</mask>
<g mask="url(#mask122_961_1023)">
<path d="M639.599 642.395C639.599 642.395 677.399 644.995 683.799 648.995C684.599 648.395 684.799 641.495 684.699 634.995C684.599 628.795 684.399 622.895 684.399 622.895C684.399 622.895 657.699 614.295 637.699 625.295C637.799 625.795 638.299 629.995 638.699 634.095C639.199 638.295 639.599 642.395 639.599 642.395Z" fill="#FEEADA"/>
<path d="M638.801 634.095C653.401 627.895 675.701 632.595 684.801 634.995C684.701 628.795 684.501 622.895 684.501 622.895C684.501 622.895 657.801 614.295 637.801 625.295C637.801 625.695 638.301 629.995 638.801 634.095Z" fill="#E2202D"/>
</g>
<mask id="mask123_961_1023" style="mask-type:luminance" maskUnits="userSpaceOnUse" x="44" y="18" width="2296" height="1546">
<path d="M2340 18.7969H44V1563.2H2340V18.7969Z" fill="white"/>
</mask>
<g mask="url(#mask123_961_1023)">
<path d="M1333.9 747.896C1333.9 747.896 1366.4 767.396 1370.3 773.896C1371.3 773.696 1374.6 767.696 1377.5 761.896C1380.3 756.296 1382.7 750.996 1382.7 750.996C1382.7 750.996 1362.8 731.296 1340 731.896C1339.9 732.296 1338.4 736.296 1336.9 740.196C1335.4 744.096 1333.9 747.896 1333.9 747.896Z" fill="#FEEADA"/>
<path d="M1336.9 740.095C1352.7 741.195 1370.4 755.495 1377.5 761.795C1380.3 756.195 1382.7 750.895 1382.7 750.895C1382.7 750.895 1362.8 731.195 1340 731.795C1339.9 732.195 1338.4 736.195 1336.9 740.095Z" fill="#E2202D"/>
</g>
<mask id="mask124_961_1023" style="mask-type:luminance" maskUnits="userSpaceOnUse" x="44" y="18" width="2296" height="1546">
<path d="M2340 18.7969H44V1563.2H2340V18.7969Z" fill="white"/>
</mask>
<g mask="url(#mask124_961_1023)">
<path d="M1889.7 129.195C1889.7 129.195 1926.8 121.395 1934 123.395C1934.6 122.595 1932.9 115.995 1931.1 109.695C1929.4 103.695 1927.5 98.0951 1927.5 98.0951C1927.5 98.0951 1899.5 97.1951 1883.2 113.195C1883.4 113.595 1885 117.595 1886.6 121.395C1888.2 125.395 1889.7 129.195 1889.7 129.195Z" fill="#FEEADA"/>
<path d="M1886.6 121.497C1898.9 111.497 1921.7 109.997 1931.1 109.797C1929.4 103.797 1927.5 98.1967 1927.5 98.1967C1927.5 98.1967 1899.5 97.2967 1883.2 113.297C1883.5 113.697 1885.1 117.597 1886.6 121.497Z" fill="#E2202D"/>
</g>
<mask id="mask125_961_1023" style="mask-type:luminance" maskUnits="userSpaceOnUse" x="44" y="18" width="2296" height="1546">
<path d="M2340 18.7969H44V1563.2H2340V18.7969Z" fill="white"/>
</mask>
<g mask="url(#mask125_961_1023)">
<path d="M1946.3 647.5C1945.7 647.5 1945 647.3 1944.6 646.8C1943.6 645.8 1943.6 644.3 1944.6 643.3C1977.9 609.2 1948.8 555.3 1948.5 554.8C1947.9 553.6 1948.2 552.2 1949.4 551.5C1950.5 550.8 1952 551.1 1952.8 552.2C1985.4 597.8 2003 604.8 2012.1 602.7C2020.5 600.7 2023.5 589.9 2024.2 586.6L1959.8 490.9C1959 489.8 1959.3 488.2 1960.5 487.4C1961.7 486.6 1963.2 486.9 1964 488.1L2029 584.7C2029.4 585.2 2029.5 585.9 2029.4 586.5C2029.3 587.2 2026.5 604.4 2013.3 607.6C2000.3 610.7 1982.6 598.3 1960.6 570.8C1962 575.2 1963.3 580.1 1964.3 585.5C1968.8 610.4 1963.3 631.6 1948.3 646.9C1947.6 647.2 1947 647.5 1946.3 647.5Z" fill="#19130F"/>
</g>
<mask id="mask126_961_1023" style="mask-type:luminance" maskUnits="userSpaceOnUse" x="44" y="18" width="2296" height="1546">
<path d="M2340 18.7969H44V1563.2H2340V18.7969Z" fill="white"/>
</mask>
<g mask="url(#mask126_961_1023)">
<path d="M1954 750C1953.4 750 1952.9 749.8 1952.4 749.4C1925.9 728.1 1850.8 622.6 1847.7 618.1C1846.9 617 1847.2 615.4 1848.3 614.6C1849.4 613.8 1851 614.1 1851.8 615.2C1852.6 616.3 1929.7 724.6 1955.6 745.5C1956.7 746.4 1956.8 747.9 1956 749C1955.5 749.7 1954.8 750 1954 750Z" fill="#19130F"/>
</g>
<mask id="mask127_961_1023" style="mask-type:luminance" maskUnits="userSpaceOnUse" x="44" y="18" width="2296" height="1546">
<path d="M2340 18.7969H44V1563.2H2340V18.7969Z" fill="white"/>
</mask>
<g mask="url(#mask127_961_1023)">
<path d="M2011.3 558.598C2010.4 558.598 2009.6 558.198 2009.1 557.398C2008.4 556.198 2008.8 554.698 2010 553.998C2093.6 504.198 2111.7 470.398 2112.2 450.798C2112.6 435.098 2101.5 427.498 2101.4 427.498C2100.2 426.698 2099.9 425.198 2100.7 423.998C2101.5 422.798 2103 422.498 2104.2 423.298C2104.8 423.698 2117.7 432.498 2117.3 450.898C2117 464.098 2109.9 478.698 2096.1 494.398C2078.7 514.198 2050.7 535.698 2012.7 558.298C2012.2 558.498 2011.7 558.598 2011.3 558.598Z" fill="#19130F"/>
</g>
<mask id="mask128_961_1023" style="mask-type:luminance" maskUnits="userSpaceOnUse" x="44" y="18" width="2296" height="1546">
<path d="M2340 18.7969H44V1563.2H2340V18.7969Z" fill="white"/>
</mask>
<g mask="url(#mask128_961_1023)">
<path d="M1988.2 633.795C1987.8 633.795 1987.4 633.695 1987 633.495C1975.7 627.395 1969.2 619.895 1967.7 610.995C1965.4 597.995 1974.8 587.295 1975.2 586.895C1976.1 585.895 1977.7 585.795 1978.7 586.695C1979.7 587.595 1979.8 589.195 1978.9 590.195C1978.8 590.295 1970.7 599.595 1972.6 610.195C1973.9 617.395 1979.5 623.795 1989.4 629.095C1990.6 629.795 1991.1 631.295 1990.4 632.495C1990 633.295 1989.1 633.795 1988.2 633.795Z" fill="#19130F"/>
</g>
<mask id="mask129_961_1023" style="mask-type:luminance" maskUnits="userSpaceOnUse" x="44" y="18" width="2296" height="1546">
<path d="M2340 18.7969H44V1563.2H2340V18.7969Z" fill="white"/>
</mask>
<g mask="url(#mask129_961_1023)">
<path d="M2004 654.2C1997.9 654.2 1993 652.6 1989.5 649.5C1985.3 645.7 1983.7 640.001 1984.9 633.401C1984.9 633.301 1984.9 633.3 1984.9 633.2C1992 607.5 2066.1 578.1 2069.3 576.8C2070.6 576.3 2072 576.9 2072.5 578.2C2073 579.5 2072.4 580.901 2071.1 581.401C2050.3 589.601 1995.2 615 1989.7 634.3C1989.1 637.7 1989.1 642.4 1992.7 645.6C1997.3 649.7 2006.2 650.1 2017.3 646.7C2018.6 646.3 2020 647 2020.4 648.4C2020.8 649.7 2020.1 651.1 2018.7 651.5C2013.4 653.3 2008.4 654.2 2004 654.2Z" fill="#19130F"/>
</g>
<mask id="mask130_961_1023" style="mask-type:luminance" maskUnits="userSpaceOnUse" x="44" y="18" width="2296" height="1546">
<path d="M2340 18.7969H44V1563.2H2340V18.7969Z" fill="white"/>
</mask>
<g mask="url(#mask130_961_1023)">
<path d="M2031.8 680.397C2030.6 680.397 2029.5 680.297 2028.3 680.197C2022 679.497 2016.9 676.697 2013.6 672.097C2013.6 671.997 2013.5 671.997 2013.5 671.897C2010.5 666.997 2010 661.897 2011.9 656.597C2021.1 631.697 2084.8 610.997 2087.5 610.097C2088.8 609.697 2090.2 610.397 2090.6 611.697C2091 612.997 2090.3 614.397 2089 614.797C2088.4 614.997 2024.9 635.597 2016.6 658.197C2015.2 661.997 2015.5 665.597 2017.7 669.097C2020.2 672.497 2024 674.497 2028.9 675.097C2037 675.997 2055.1 673.597 2085.8 647.297C2086.8 646.397 2088.4 646.497 2089.3 647.597C2090.2 648.597 2090.1 650.197 2089 651.097C2067 670.097 2046.8 680.397 2031.8 680.397Z" fill="#19130F"/>
</g>
</g>
<defs>
<clipPath id="clip0_961_1023">
<rect width="2340" height="1405" fill="white"/>
</clipPath>
</defs>
</svg>
