<svg xmlns="http://www.w3.org/2000/svg" width="256" height="256">
    <path style="stroke:none;fill-rule:nonzero;fill:#000;fill-opacity:1" d="M74.668 213.332c0 5.867 4.797 10.668 10.664 10.668h85.336c5.867 0 10.664-4.8 10.664-10.668v-32H74.668ZM192 74.668c-5.867 0-10.668 4.797-10.668 10.664v-32C181.332 41.602 171.734 32 160 32H74.668c-11.734 0-21.336 9.602-21.336 21.332v61.867c0 1.387.11 2.774.43 4.16l8.531 42.668c.96 5.012 5.332 8.532 10.453 8.532h110.508c4.8 0 9.492-3.84 10.453-8.532l8.531-42.668c.32-1.386.43-2.773.43-4.16V85.332c0-5.867-4.8-10.664-10.668-10.664Zm-42.668 32h-64c-5.867 0-10.664-4.8-10.664-10.668V85.332c0-5.867 4.797-10.664 10.664-10.664h64c5.867 0 10.668 4.797 10.668 10.664V96c0 5.867-4.8 10.668-10.668 10.668Zm0 0"/>
</svg>
