<svg xmlns="http://www.w3.org/2000/svg" width="256" height="256">
    <path style="stroke:none;fill-rule:nonzero;fill:#000;fill-opacity:1" d="M160.535 136.64 69.973 46.079a10.628 10.628 0 0 0-15.04 0L24.747 76.266a10.626 10.626 0 0 0 0 15.043l90.563 90.558a10.621 10.621 0 0 0 15.039 0l30.187-30.187a10.628 10.628 0 0 0 0-15.04ZM152.973 189.398l15.086-15.082 45.254 45.254-15.086 15.082ZM234.668 58.668c0 20.617-16.715 37.332-37.336 37.332C176.715 96 160 79.285 160 58.668c0-20.621 16.715-37.336 37.332-37.336 20.621 0 37.336 16.715 37.336 37.336Zm0 0"/>
</svg>
